<?xml version="1.0" encoding="utf-8"?>
<!-- Generator: Adobe Illustrator 22.0.1, SVG Export Plug-In . SVG Version: 6.00 Build 0)  -->
<svg version="1.1" id="Layer_1" xmlns="http://www.w3.org/2000/svg" xmlns:xlink="http://www.w3.org/1999/xlink" x="0px" y="0px"
	 width="1120px" height="1120px" viewBox="0 0 1120 1120" style="enable-background:new 0 0 1120 1120;" xml:space="preserve">
<style type="text/css">
	.st0{opacity:0.25;fill:none;stroke:#57BDFF;stroke-width:1.3578;stroke-linejoin:round;stroke-miterlimit:10;}
	.st1{fill:none;stroke:#FFDD9D;stroke-width:0.6789;stroke-miterlimit:10;}
	.st2{fill:url(#SVGID_1_);}
	.st3{fill:url(#SVGID_2_);}
	.st4{fill:url(#SVGID_3_);}
	.st5{fill:url(#SVGID_4_);}
	.st6{opacity:0.35;}
	.st7{fill:#57BDFF;}
	.st8{fill:#E2EBFB;}
	.st9{fill:url(#SVGID_5_);}
	.st10{fill:url(#SVGID_6_);}
	.st11{fill:#2E3280;}
	.st12{fill:url(#SVGID_7_);}
	.st13{fill:url(#SVGID_8_);}
	.st14{fill:url(#SVGID_9_);}
	.st15{fill:none;stroke:#2CD3D8;stroke-width:1.3578;stroke-linecap:round;stroke-miterlimit:10;}
	.st16{fill:url(#SVGID_10_);}
	.st17{fill:url(#SVGID_11_);}
	.st18{fill:url(#SVGID_12_);}
	.st19{fill:#0C64FF;}
	.st20{fill:url(#SVGID_13_);}
	.st21{fill:url(#SVGID_14_);}
	.st22{fill:url(#SVGID_15_);}
	.st23{fill:#2CD180;}
	.st24{fill:none;stroke:#FFFFFF;stroke-width:2;stroke-linecap:round;stroke-miterlimit:10;}
</style>
<g>
	<polygon class="st0" points="426.8,359 531.5,298.8 531.5,138.2 426.8,198.5 	"/>
	<path class="st1" d="M613.9,644.6"/>
	<path class="st1" d="M613.9,644.6"/>
	<linearGradient id="SVGID_1_" gradientUnits="userSpaceOnUse" x1="350.9146" y1="639.256" x2="113.5812" y2="428.5894">
		<stop  offset="0" style="stop-color:#57BDFF"/>
		<stop  offset="1" style="stop-color:#E2EBFB;stop-opacity:0"/>
	</linearGradient>
	<polygon class="st2" points="177.6,642.2 282.2,582 282.2,421.4 177.6,481.7 	"/>
	<linearGradient id="SVGID_2_" gradientUnits="userSpaceOnUse" x1="904.1777" y1="684.0723" x2="481.5111" y2="442.739">
		<stop  offset="0" style="stop-color:#57BDFF"/>
		<stop  offset="1" style="stop-color:#E2EBFB;stop-opacity:0"/>
	</linearGradient>
	<polygon class="st3" points="620,662.1 724.7,601.8 724.7,441.3 620,501.6 	"/>
	<polygon class="st0" points="738.3,444.6 813.9,401 813.9,284.8 738.3,328.4 	"/>
	<linearGradient id="SVGID_3_" gradientUnits="userSpaceOnUse" x1="896.5892" y1="575.8759" x2="621.9226" y2="370.5426">
		<stop  offset="0" style="stop-color:#57BDFF"/>
		<stop  offset="1" style="stop-color:#E2EBFB;stop-opacity:0"/>
	</linearGradient>
	<polygon class="st4" points="689.3,528.4 764.6,485.1 764.6,369.7 689.3,413 	"/>
	<g>
		<g>
			<linearGradient id="SVGID_4_" gradientUnits="userSpaceOnUse" x1="520.8587" y1="622.4255" x2="348.8587" y2="461.0922">
				<stop  offset="0" style="stop-color:#57BDFF"/>
				<stop  offset="1" style="stop-color:#E2EBFB;stop-opacity:0"/>
			</linearGradient>
			<polygon class="st5" points="377.4,702.5 518.2,621.4 518.2,405.3 377.4,486.4 			"/>
			<g class="st6">
				<path class="st7" d="M447.9,551.2L447.9,551.2c22.8-13.5,41.3-5.9,41.3,16.9v3l-82.6,48.7v-3C406.6,594,425.1,564.6,447.9,551.2
					z"/>

					<ellipse transform="matrix(0.5987 -0.8009 0.8009 0.5987 -227.8559 562.9755)" class="st7" cx="447.9" cy="508.9" rx="38.1" ry="21.3"/>
			</g>
		</g>
		<polygon class="st8" points="412.9,574.8 316.1,630.6 316.1,633.6 412.9,577.8 		"/>
		<polygon class="st8" points="412.9,590.4 316.1,646.2 316.1,649.3 412.9,593.5 		"/>
		<polygon class="st8" points="412.9,606 316.1,661.8 316.1,664.9 412.9,609.1 		"/>
		<polygon class="st8" points="412.9,621.7 316.1,677.5 316.1,680.5 412.9,624.7 		"/>
		<polygon class="st8" points="412.9,637.3 316.1,693.1 316.1,696.1 412.9,640.4 		"/>
		<polygon class="st8" points="412.9,652.9 316.1,708.7 316.1,711.8 412.9,656 		"/>
	</g>
	<g>
		<g>
			<linearGradient id="SVGID_5_" gradientUnits="userSpaceOnUse" x1="577.1971" y1="400.4494" x2="398.3025" y2="221.5547">
				<stop  offset="0" style="stop-color:#57BDFF"/>
				<stop  offset="1" style="stop-color:#E2EBFB;stop-opacity:0"/>
			</linearGradient>
			<polygon class="st9" points="458.3,500.6 599.1,419.4 599.1,203.3 458.3,284.5 			"/>
			<g class="st6">
				<path class="st7" d="M528.8,349.2L528.8,349.2c22.8-13.5,41.3-5.9,41.3,16.9v3l-82.6,48.7v-3C487.5,392.1,506,362.7,528.8,349.2
					z"/>

					<ellipse transform="matrix(0.5987 -0.8009 0.8009 0.5987 -33.6373 546.7037)" class="st7" cx="528.8" cy="306.9" rx="38.1" ry="21.3"/>
			</g>
		</g>
		<polygon class="st8" points="673.3,197.4 576.6,253.2 576.6,256.2 673.3,200.5 		"/>
		<polygon class="st8" points="673.3,213 576.6,268.8 576.6,271.9 673.3,216.1 		"/>
		<polygon class="st8" points="673.3,228.7 576.6,284.4 576.6,287.5 673.3,231.7 		"/>
		<polygon class="st8" points="673.3,244.3 576.6,300.1 576.6,303.1 673.3,247.3 		"/>
		<polygon class="st8" points="673.3,259.9 576.6,315.7 576.6,318.8 673.3,263 		"/>
		<polygon class="st8" points="673.3,275.5 576.6,331.3 576.6,334.4 673.3,278.6 		"/>
	</g>
	<g>
		<g>
			<linearGradient id="SVGID_6_" gradientUnits="userSpaceOnUse" x1="330.7094" y1="328.2336" x2="151.8147" y2="149.3389">
				<stop  offset="0" style="stop-color:#57BDFF"/>
				<stop  offset="1" style="stop-color:#E2EBFB;stop-opacity:0"/>
			</linearGradient>
			<polygon class="st10" points="211.8,428.4 352.6,347.2 352.6,131.1 211.8,212.2 			"/>
			<g class="st6">
				<path class="st7" d="M282.3,277L282.3,277c22.8-13.5,41.3-5.9,41.3,16.9v3L241,345.6v-3C241,319.9,259.5,290.5,282.3,277z"/>

					<ellipse transform="matrix(0.5987 -0.8009 0.8009 0.5987 -74.701 320.3053)" class="st7" cx="282.3" cy="234.7" rx="38.1" ry="21.3"/>
			</g>
		</g>
		<polygon class="st8" points="401,202.7 304.3,258.5 304.3,261.6 401,205.8 		"/>
		<polygon class="st8" points="401,218.4 304.3,274.1 304.3,277.2 401,221.4 		"/>
		<polygon class="st8" points="401,234 304.3,289.8 304.3,292.8 401,237 		"/>
		<polygon class="st8" points="401,249.6 304.3,305.4 304.3,308.5 401,252.7 		"/>
		<polygon class="st8" points="401,265.2 304.3,321 304.3,324.1 401,268.3 		"/>
		<polygon class="st8" points="401,280.9 304.3,336.7 304.3,339.7 401,283.9 		"/>
	</g>
	<g>
		<polygon class="st11" points="652.3,214.1 667.2,218.5 659.7,220.7 		"/>
		<g>
			<g>
				<linearGradient id="SVGID_7_" gradientUnits="userSpaceOnUse" x1="711.537" y1="437.9549" x2="893.0844" y2="619.5023">
					<stop  offset="0" style="stop-color:#2CD180"/>
					<stop  offset="1" style="stop-color:#2CD3D8"/>
				</linearGradient>
				<path class="st12" d="M942.4,527.2c0,36.8-58.9,121-131.6,121s-131.6-84.2-131.6-121c0-36.8,58.9-66.6,131.6-66.6
					S942.4,490.4,942.4,527.2z"/>
				<linearGradient id="SVGID_8_" gradientUnits="userSpaceOnUse" x1="548.9073" y1="419.5929" x2="1048.4594" y2="624.872">
					<stop  offset="0" style="stop-color:#FFFFFF"/>
					<stop  offset="1" style="stop-color:#E2EBFB;stop-opacity:0"/>
				</linearGradient>
				<ellipse class="st13" cx="810.8" cy="527.2" rx="131.6" ry="66.6"/>
				<linearGradient id="SVGID_9_" gradientUnits="userSpaceOnUse" x1="727.8904" y1="527.2087" x2="1023.7454" y2="527.2087">
					<stop  offset="0" style="stop-color:#2E3280"/>
					<stop  offset="1" style="stop-color:#0C64FF"/>
				</linearGradient>
				<path class="st14" d="M810.8,584.4c-73.1,0-122.1-29.5-122.1-57.1s49.1-57.1,122.1-57.1s122.1,29.5,122.1,57.1
					S883.9,584.4,810.8,584.4z"/>
			</g>
			<line class="st15" x1="691.3" y1="549.4" x2="812" y2="242.6"/>
			<line class="st15" x1="901.6" y1="485.9" x2="812" y2="242.6"/>
		</g>
		<linearGradient id="SVGID_10_" gradientUnits="userSpaceOnUse" x1="1306.7159" y1="507.5634" x2="340.7159" y2="1053.5635">
			<stop  offset="0" style="stop-color:#57BDFF"/>
			<stop  offset="1" style="stop-color:#E2EBFB;stop-opacity:0"/>
		</linearGradient>
		<polygon class="st16" points="922,812.7 608,994.1 450.9,903.4 765,722.2 		"/>
		<linearGradient id="SVGID_11_" gradientUnits="userSpaceOnUse" x1="732.9158" y1="933.1765" x2="1466.9158" y2="491.1765">
			<stop  offset="0" style="stop-color:#2E3280"/>
			<stop  offset="1" style="stop-color:#E2EBFB;stop-opacity:0"/>
		</linearGradient>
		<polygon class="st17" points="921.9,833.7 608,1014.5 608,994.1 921.9,813.3 		"/>
		<linearGradient id="SVGID_12_" gradientUnits="userSpaceOnUse" x1="441.843" y1="907.3226" x2="868.5096" y2="1159.3226">
			<stop  offset="0" style="stop-color:#2E3280"/>
			<stop  offset="1" style="stop-color:#E2EBFB;stop-opacity:0"/>
		</linearGradient>
		<polygon class="st18" points="450.9,903.7 608,994.1 608,1014.5 450.9,924.1 		"/>
		<polygon class="st11" points="922,155.7 699.5,283.8 699.5,112 673.4,120.3 673.4,298.8 422.7,443.2 427,460.5 673.4,318.6
			673.4,854.5 699.5,854.5 699.5,303.6 922,175.5 		"/>
		<ellipse class="st19" cx="424.8" cy="451.9" rx="6.3" ry="9.2"/>
		<ellipse class="st11" cx="922" cy="165.5" rx="6.8" ry="9.9"/>

			<ellipse transform="matrix(0.8969 -0.4423 0.4423 0.8969 19.3286 315.6501)" class="st19" cx="686.6" cy="116.4" rx="14" ry="9.9"/>

			<ellipse transform="matrix(0.8969 -0.4423 0.4423 0.8969 -307.1366 391.6254)" class="st11" cx="686.3" cy="854.5" rx="14" ry="9.9"/>
		<polygon class="st11" points="658.9,245.6 674.9,250.1 665.9,228.5 		"/>
		<g>
			<g>
				<linearGradient id="SVGID_13_" gradientUnits="userSpaceOnUse" x1="465.4338" y1="575.912" x2="646.9813" y2="757.4594">
					<stop  offset="0" style="stop-color:#2CD180"/>
					<stop  offset="1" style="stop-color:#2CD3D8"/>
				</linearGradient>
				<path class="st20" d="M696.3,665.2c0,36.8-58.9,121-131.6,121s-131.6-84.2-131.6-121c0-36.8,58.9-66.6,131.6-66.6
					S696.3,628.4,696.3,665.2z"/>
				<linearGradient id="SVGID_14_" gradientUnits="userSpaceOnUse" x1="302.8042" y1="557.55" x2="802.3562" y2="762.8292">
					<stop  offset="0" style="stop-color:#FFFFFF"/>
					<stop  offset="1" style="stop-color:#E2EBFB;stop-opacity:0"/>
				</linearGradient>
				<ellipse class="st21" cx="564.7" cy="665.2" rx="131.6" ry="66.6"/>
				<linearGradient id="SVGID_15_" gradientUnits="userSpaceOnUse" x1="481.7872" y1="665.1658" x2="777.6422" y2="665.1658">
					<stop  offset="0" style="stop-color:#2E3280"/>
					<stop  offset="1" style="stop-color:#0C64FF"/>
				</linearGradient>
				<path class="st22" d="M564.7,722.3c-73.1,0-122.1-29.5-122.1-57.1S491.6,608,564.7,608s122.1,29.5,122.1,57.1
					S637.8,722.3,564.7,722.3z"/>
			</g>
			<line class="st15" x1="445.2" y1="687.3" x2="565.9" y2="380.6"/>
			<line class="st15" x1="655.5" y1="623.8" x2="565.9" y2="380.6"/>
		</g>

			<ellipse transform="matrix(0.5475 -0.8368 0.8368 0.5475 137.7118 669.3937)" class="st11" cx="687.8" cy="207.4" rx="62.2" ry="34.8"/>

			<ellipse transform="matrix(0.5475 -0.8368 0.8368 0.5475 140.5086 682.424)" class="st23" cx="701.2" cy="211.3" rx="62.2" ry="34.8"/>
		<polyline class="st24" points="685,226 698.7,230.7 719.2,191 		"/>
	</g>
</g>
</svg>
