<?xml version="1.0" encoding="utf-8"?>
<!-- Generator: Adobe Illustrator 22.0.1, SVG Export Plug-In . SVG Version: 6.00 Build 0)  -->
<svg version="1.1" id="Layer_1" xmlns="http://www.w3.org/2000/svg" xmlns:xlink="http://www.w3.org/1999/xlink" x="0px" y="0px"
	 width="1120px" height="1120px" viewBox="0 0 1120 1120" style="enable-background:new 0 0 1120 1120;" xml:space="preserve">
<style type="text/css">
	.st0{fill:#2CD3D8;}
	.st1{fill:#1FC9C9;}
	.st2{fill:#2E3280;}
	.st3{fill:#A06405;}
	.st4{fill:#915806;}
	.st5{fill:#B17400;}
	.st6{fill:#222A72;}
	.st7{fill:url(#SVGID_1_);}
	.st8{fill:url(#SVGID_2_);}
	.st9{fill:url(#SVGID_3_);}
	.st10{fill:#03A5A4;}
	.st11{fill:url(#SVGID_4_);}
	.st12{fill:url(#SVGID_5_);}
	.st13{opacity:0.25;fill:#03A5A4;}
	.st14{fill:url(#SVGID_6_);}
	.st15{fill:url(#SVGID_7_);}
	.st16{fill:url(#SVGID_8_);}
	.st17{fill:url(#SVGID_9_);}
	.st18{fill:url(#SVGID_10_);}
	.st19{fill:url(#SVGID_11_);}
	.st20{fill:url(#SVGID_12_);}
	.st21{fill:url(#SVGID_13_);}
	.st22{fill:url(#SVGID_14_);}
	.st23{fill:#E2EBFB;}
	.st24{fill:url(#SVGID_15_);}
	.st25{fill:url(#SVGID_16_);}
	.st26{fill:url(#SVGID_17_);}
	.st27{fill:url(#SVGID_18_);}
	.st28{fill:none;stroke:#2CD3D8;stroke-width:0.6789;stroke-miterlimit:10;}
	.st29{opacity:0.5;fill:url(#SVGID_19_);}
	.st30{fill:url(#SVGID_20_);}
	.st31{fill:#FFFFFF;}
	.st32{fill:none;stroke:#FFFFFF;stroke-width:2;stroke-miterlimit:10;}
	.st33{opacity:0.5;fill:url(#SVGID_21_);}
	.st34{opacity:0.5;fill:url(#SVGID_22_);}
	.st35{opacity:0.75;fill:#57BDFF;}
</style>
<g>
	<g>
		<circle class="st0" cx="656.8" cy="199.8" r="32.6"/>
		<circle class="st0" cx="614.1" cy="364.7" r="22"/>
		<polygon class="st1" points="624.2,198.9 591.7,364.6 635.1,370.8 688.6,206.7 		"/>
	</g>
	<g>
		<g>
			<g>
				<circle class="st2" cx="670.4" cy="448.8" r="56"/>
				<polygon class="st2" points="614.4,448.8 614.4,699 673.5,699 725.1,461.2 				"/>
				<circle class="st2" cx="637.8" cy="699" r="23.4"/>
				<path class="st2" d="M614.4,699v278.3h20c11.7,0,21.5-8.7,22.9-20.3l19.8-161.6l-3.6-96.4H614.4z"/>
			</g>
			<g>
				<circle class="st2" cx="751.8" cy="484.7" r="56"/>
				<polygon class="st2" points="696.1,490.4 721.6,739.3 780.4,733.2 807.5,491.4 				"/>
				<circle class="st2" cx="744.9" cy="736.9" r="23.4"/>
				<path class="st2" d="M721.6,739.3l28.3,276.9l15.2-1.6c14.3-1.5,25.3-13.4,25.6-27.8l3.1-158l-13.4-95.6L721.6,739.3z"/>
			</g>
			<path class="st0" d="M615.1,448.8c6.6-41.9,11.5-91.4,11.5-146.9c0-32.2-1.6-62.4-4.3-90.2c-2.8-29.3,22.4-53.7,51.6-50.1
				c30,3.7,59.9,7.4,89.9,11.1c20.2,2.5,36.4,17.9,39.8,38c3,17.8-19.8,33.8-17.7,53.2c8.7,83.2-90.1,140,21.6,220.7
				c-21.8,5.2-63,11.8-112.1,0C658.9,476,631.8,460.4,615.1,448.8z"/>
			<path class="st3" d="M741.5,123.6l5.4,47.1c-3.4,6.3-9.1,14.9-18.2,23.1c-13.3,12-27.2,17.1-35.2,19.4
				c4.8-29.9,9.7-59.7,14.5-89.6H741.5z"/>
			<path class="st4" d="M741.5,123.6l2.7,23.2c-2.5,3.4-8.8,10.7-19.5,15.1c-10.2,4.2-19.1,3.6-23.3,3.1c2.2-13.8,4.5-27.6,6.7-41.4
				H741.5z"/>
			<path class="st5" d="M773.8,81.1L773.8,81.1c1.4-4.7,2.1-9.7,2.1-14.9c0-29.3-23.8-53.1-53.1-53.1c-29.3,0-53.1,23.8-53.1,53.1
				c0,2.9,0.2,5.7,0.7,8.5l8.6,61.3c1.3,9.4,9.6,16.2,19.1,15.6l21.9-1.3c17.8-1.1,33.2-12.6,39.3-29.3l12.2-33.4
				C772.4,85.5,773.1,83.3,773.8,81.1L773.8,81.1z"/>
			<path class="st3" d="M713.8,59.6c0,0-7.7,25-41.8,26.7l-2.1-15l26.8-29.6L713.8,59.6z"/>
			<path class="st2" d="M722.8,13.1c-2,0-4.1,0.1-6,0.4c-3.5,8.4-5.5,17.7-5.5,27.4c0,32.7,22.2,60.1,52.3,68.2l7.8-21.4
				c0.9-2.1,1.7-4.3,2.4-6.5l0,0h0c1.4-4.7,2.1-9.7,2.1-14.9C775.9,36.9,752.2,13.1,722.8,13.1z"/>
			<path class="st2" d="M722.8,13.1c-2,0-4.1,0.1-6,0.4c-3.5,8.4-5.5,17.7-5.5,27.4c0,32.7,22.2,60.1,52.3,68.2l7.8-21.4
				c0.9-2.1,1.7-4.3,2.4-6.5l0,0h0c1.4-4.7,2.1-9.7,2.1-14.9C775.9,36.9,752.2,13.1,722.8,13.1z"/>
			<g>
				<path class="st2" d="M723.5,15.4c0.6-0.8,1.3-1.5,2-2.3c-0.9,0-1.7-0.1-2.6-0.1c-2,0-4.1,0.1-6,0.4c-3,7-4.8,14.6-5.3,22.6
					C714.2,28.8,718.2,21.8,723.5,15.4z"/>
				<path class="st6" d="M775.9,66.2c0-9.5-2.5-18.3-6.8-26c0.5,12.7-3.5,25.6-12.3,36.2c-3.3,4-7.1,7.3-11.2,10.1h0l0,0
					c-1.9,1.3-3.9,2.4-6,3.5l-5.3,3.1c8.2,7.5,18.2,13.1,29.3,16.1l7.8-21.4c0.9-2.1,1.7-4.3,2.4-6.5l0,0h0
					C775.2,76.4,775.9,71.4,775.9,66.2z"/>
			</g>
			<path class="st2" d="M743.6,17.3c0,0,9.6,46.9-84.1,55.2C659.5,72.5,652.8-40.1,743.6,17.3z"/>
		</g>
	</g>
	<linearGradient id="SVGID_1_" gradientUnits="userSpaceOnUse" x1="175.7871" y1="445.8562" x2="944.213" y2="445.8562">
		<stop  offset="0" style="stop-color:#00BDFF"/>
		<stop  offset="1" style="stop-color:#5763FF"/>
	</linearGradient>
	<polygon class="st7" points="175.8,371.9 431.9,224 944.2,519.8 688,667.7 	"/>
	<path class="st0" d="M803.7,216.5c1,12.7,1.5,32.7-2,56.7c-5.6,37.7-16.6,52.8-21.2,87.2c-2,15-3.3,37.5,1.7,65.9
		c-4.4-2.6-8.9-5.1-13.3-7.7l-50.6-29.2L803.7,216.5z"/>
	<linearGradient id="SVGID_2_" gradientUnits="userSpaceOnUse" x1="677.1793" y1="434.743" x2="458.7983" y2="362.3959">
		<stop  offset="0" style="stop-color:#57BDFF"/>
		<stop  offset="1" style="stop-color:#E2EBFB;stop-opacity:0"/>
	</linearGradient>
	<polygon class="st8" points="513.3,392.1 569.4,359.7 681.8,424.6 625.6,457 	"/>
	<path class="st1" d="M736.6,209.6l-18.2,179.7l-60.6-35c41.3-16.5,54-34.9,57.2-49.7c5.1-23.9-13.8-43.4-3.6-68.3
		C716.8,223,727.8,214.7,736.6,209.6z"/>
	<path class="st1" d="M793.5,240.4c-0.2,4.5-0.6,11.5-1.6,20c-4.6,38.2-15.8,58.5-23.1,85.1c-4.2,15.5-8.6,38.6-7.4,68.8
		c-15.8-9.2-31.7-18.3-47.5-27.5L793.5,240.4z"/>
	<g>
		<g>
			<g>
				<polygon class="st0" points="406.4,323.5 398,385 353,385 353,317 				"/>
				<polygon class="st0" points="299.6,323.5 308,385 353,385 353,317 				"/>
				<linearGradient id="SVGID_3_" gradientUnits="userSpaceOnUse" x1="815.6552" y1="323.4995" x2="254.9778" y2="323.4995">
					<stop  offset="0" style="stop-color:#2CD3D8"/>
					<stop  offset="1" style="stop-color:#E2EBFB"/>
				</linearGradient>
				<ellipse class="st9" cx="353" cy="323.5" rx="53.4" ry="31.1"/>
				<ellipse class="st10" cx="353" cy="323.5" rx="47.9" ry="28"/>
				<ellipse class="st0" cx="353" cy="385" rx="45" ry="26.2"/>
				<ellipse class="st2" cx="353" cy="330.7" rx="41.2" ry="17.9"/>
				<ellipse class="st2" cx="353" cy="331.5" rx="45.9" ry="20"/>
			</g>
		</g>
		<linearGradient id="SVGID_4_" gradientUnits="userSpaceOnUse" x1="351.6587" y1="329.2542" x2="258.3114" y2="211.1275">
			<stop  offset="0" style="stop-color:#2CD180"/>
			<stop  offset="1" style="stop-color:#2CD3D8"/>
		</linearGradient>
		<path class="st11" d="M353,330c0,0-24.2-154.2-94.6-118.5S353,330,353,330z"/>
		<linearGradient id="SVGID_5_" gradientUnits="userSpaceOnUse" x1="352.9931" y1="289.8" x2="493.8958" y2="289.8">
			<stop  offset="0" style="stop-color:#2CD180"/>
			<stop  offset="1" style="stop-color:#2CD3D8"/>
		</linearGradient>
		<path class="st12" d="M353,330c0,0,154.9,18.8,139.9-58.6C477.8,193.9,353,330,353,330z"/>
		<path class="st13" d="M306.3,217.9l-6.5-5.1c0,0-0.1-0.1-0.1-0.1c0.4,0.7,28.9,50.8,13.7,60.9c-15.3,10.2,0.2,34,0.2,34l0,0
			C335,321,353,330,353,330S340.2,248.8,306.3,217.9z"/>
		<linearGradient id="SVGID_6_" gradientUnits="userSpaceOnUse" x1="330.9595" y1="245.1052" x2="394.6047" y2="245.1052">
			<stop  offset="0" style="stop-color:#2CD180"/>
			<stop  offset="1" style="stop-color:#2CD3D8"/>
		</linearGradient>
		<path class="st14" d="M353,330c0,0-57.5-182.9,13.3-169.1C437,174.8,353,330,353,330z"/>
		<path class="st13" d="M353,330c0,0,23.1-42.7,34.9-85.4c-14.1-61.9-25.3-4.6-34.9,6.9c-9.5,11.4-21.6-32.2-21.8-32.9
			C333.4,267.8,353,330,353,330z"/>
		<path class="st13" d="M398,306.7c-28.3,5,19.7-35.4,19.7-35.4l0,0C384.5,295.7,353,330,353,330s35.9,4.4,71.5,0.2l18-2.9
			c0,0,0,0,0,0C479.5,289.7,426.3,301.7,398,306.7z"/>
	</g>
	<g>
		<circle class="st0" cx="769.2" cy="210.6" r="32.6"/>
		<circle class="st0" cx="726.4" cy="375.5" r="22"/>
		<polygon class="st0" points="736.6,209.6 704.1,375.3 747.5,381.6 801,217.4 		"/>
		<polygon class="st0" points="731.3,397 585.9,422.8 574.7,402.7 723,354.4 		"/>
	</g>
	<linearGradient id="SVGID_7_" gradientUnits="userSpaceOnUse" x1="859.0126" y1="527.6911" x2="526.4601" y2="195.1386">
		<stop  offset="0" style="stop-color:#E2EBFB"/>
		<stop  offset="1" style="stop-color:#E2EBFB;stop-opacity:0"/>
	</linearGradient>
	<polygon class="st15" points="771.1,464.1 588.7,360.6 588.7,233.1 771.1,336.5 	"/>
	<linearGradient id="SVGID_8_" gradientUnits="userSpaceOnUse" x1="807.026" y1="415.7055" x2="570.9976" y2="179.6772">
		<stop  offset="0" style="stop-color:#E2EBFB"/>
		<stop  offset="1" style="stop-color:#E2EBFB;stop-opacity:0"/>
	</linearGradient>
	<polygon class="st16" points="771.1,344.1 588.7,240.6 588.7,233.1 771.1,336.5 	"/>
	<linearGradient id="SVGID_9_" gradientUnits="userSpaceOnUse" x1="633.8914" y1="349.961" x2="328.6474" y2="44.717">
		<stop  offset="0" style="stop-color:#57BDFF"/>
		<stop  offset="1" style="stop-color:#E2EBFB;stop-opacity:0"/>
	</linearGradient>
	<polygon class="st17" points="527.8,317 411.2,250.6 411.2,54.1 527.8,120.5 	"/>
	<linearGradient id="SVGID_10_" gradientUnits="userSpaceOnUse" x1="694.4727" y1="307.1633" x2="570.4605" y2="183.1512">
		<stop  offset="0" style="stop-color:#E2EBFB"/>
		<stop  offset="1" style="stop-color:#E2EBFB;stop-opacity:0"/>
	</linearGradient>
	<polygon class="st18" points="651.4,293.8 604,266.8 604,187 651.4,213.9 	"/>
	<linearGradient id="SVGID_11_" gradientUnits="userSpaceOnUse" x1="552.2738" y1="174.147" x2="398.5699" y2="20.4431">
		<stop  offset="0" style="stop-color:#E2EBFB"/>
		<stop  offset="1" style="stop-color:#E2EBFB;stop-opacity:0"/>
	</linearGradient>
	<polygon class="st19" points="527.8,128.6 411.2,62.2 411.2,54.1 527.8,120.5 	"/>
	<g>

			<linearGradient id="SVGID_12_" gradientUnits="userSpaceOnUse" x1="315.7444" y1="486.3002" x2="126.7432" y2="423.6863" gradientTransform="matrix(-1 0 0 1 763.0064 0)">
			<stop  offset="0" style="stop-color:#FFFFFF"/>
			<stop  offset="1" style="stop-color:#E2EBFB;stop-opacity:0"/>
		</linearGradient>
		<polygon class="st20" points="588.8,448.5 541.7,421.2 443.6,478.4 490.8,505.7 		"/>

			<linearGradient id="SVGID_13_" gradientUnits="userSpaceOnUse" x1="311.8622" y1="479.9197" x2="128.4459" y2="419.156" gradientTransform="matrix(-1 0 0 1 763.0064 0)">
			<stop  offset="0" style="stop-color:#FFFFFF"/>
			<stop  offset="1" style="stop-color:#E2EBFB;stop-opacity:0"/>
		</linearGradient>
		<polygon class="st21" points="588.8,444.1 541.7,416.9 447.3,471.4 494.5,498.6 		"/>

			<linearGradient id="SVGID_14_" gradientUnits="userSpaceOnUse" x1="311.8622" y1="479.9197" x2="128.4459" y2="419.156" gradientTransform="matrix(-1 0 0 1 763.0064 0)">
			<stop  offset="0" style="stop-color:#57BDFF"/>
			<stop  offset="1" style="stop-color:#E2EBFB;stop-opacity:0"/>
		</linearGradient>
		<polygon class="st22" points="588.8,444.1 541.7,416.9 447.3,471.4 494.5,498.6 		"/>
		<g>
			<path class="st23" d="M653,484.3L441.1,362c-5.2-3-8.4-8.6-8.4-14.6V197c0-6.1,6.6-9.9,11.9-6.9l211.9,122.3
				c5.2,3,8.4,8.6,8.4,14.6v150.4C664.9,483.5,658.3,487.3,653,484.3z"/>
			<polygon class="st23" points="660.4,484.5 652.2,489.5 427.4,195.7 436.5,190.3 			"/>
			<linearGradient id="SVGID_15_" gradientUnits="userSpaceOnUse" x1="455.5898" y1="220.613" x2="607.6609" y2="440.5731">
				<stop  offset="0" style="stop-color:#5B63FD"/>
				<stop  offset="1" style="stop-color:#2E3280"/>
			</linearGradient>
			<path class="st24" d="M644.1,489.6L432.2,367.3c-5.2-3-8.4-8.6-8.4-14.6V202.4c0-6.1,6.6-9.9,11.9-6.9l211.9,122.3
				c5.2,3,8.4,8.6,8.4,14.6v150.4C656,488.8,649.4,492.6,644.1,489.6z"/>
		</g>

			<linearGradient id="SVGID_16_" gradientUnits="userSpaceOnUse" x1="326.648" y1="453.6765" x2="154.9614" y2="396.7988" gradientTransform="matrix(-1 0 0 1 763.0064 0)">
			<stop  offset="0" style="stop-color:#FFFFFF"/>
			<stop  offset="1" style="stop-color:#E2EBFB;stop-opacity:0"/>
		</linearGradient>
		<polygon class="st25" points="554.4,387.4 507.2,360.2 443.6,478.4 490.8,505.7 		"/>
		<linearGradient id="SVGID_17_" gradientUnits="userSpaceOnUse" x1="463.6361" y1="492.5569" x2="613.8969" y2="245.4413">
			<stop  offset="0" style="stop-color:#FFFFFF"/>
			<stop  offset="1" style="stop-color:#E2EBFB;stop-opacity:0"/>
		</linearGradient>
		<polygon class="st26" points="554.4,392 554.4,387.4 507.2,360.2 443.6,478.4 494.5,498.6 498.2,496.5 		"/>
	</g>
	<g>
		<g>
			<g>
				<polygon class="st0" points="730.9,461.7 726.6,511.5 703.2,511.5 703.2,458.3 				"/>
				<polygon class="st0" points="675.5,461.7 679.9,511.5 703.2,511.5 703.2,458.3 				"/>
				<linearGradient id="SVGID_18_" gradientUnits="userSpaceOnUse" x1="1148.9897" y1="461.6566" x2="618.0359" y2="461.6566">
					<stop  offset="0" style="stop-color:#2CD3D8"/>
					<stop  offset="1" style="stop-color:#E2EBFB"/>
				</linearGradient>
				<ellipse class="st27" cx="703.2" cy="461.7" rx="27.7" ry="16.1"/>
				<ellipse class="st10" cx="703.2" cy="461.7" rx="22.3" ry="13"/>
				<ellipse class="st0" cx="703.2" cy="511.5" rx="23.3" ry="13.6"/>
				<ellipse class="st2" cx="703.2" cy="465.4" rx="21.4" ry="9.3"/>
				<ellipse class="st2" cx="703.2" cy="465.4" rx="21.4" ry="9.3"/>
			</g>
		</g>
		<path class="st28" d="M722.8,477.8l17.9,3.9l-1,11.1c-0.9,9.7-10.3,16.3-19.7,13.7v0"/>
	</g>
	<g>
		<linearGradient id="SVGID_19_" gradientUnits="userSpaceOnUse" x1="564.3369" y1="164.2962" x2="478.7968" y2="16.2984">
			<stop  offset="0" style="stop-color:#FFFFFF"/>
			<stop  offset="1" style="stop-color:#E2EBFB;stop-opacity:0"/>
		</linearGradient>
		<path class="st29" d="M511.4,165.7l33.2,57.6l7.3-4.3c22.2-13.2,35.9-37.2,35.9-63.1v-44.4l-86.1-48.9v66.5
			C501.7,142,505,154.6,511.4,165.7z"/>
		<linearGradient id="SVGID_20_" gradientUnits="userSpaceOnUse" x1="557.5479" y1="166.4753" x2="472.0079" y2="18.4775">
			<stop  offset="0" style="stop-color:#2CD180"/>
			<stop  offset="1" style="stop-color:#2CD3D8"/>
		</linearGradient>
		<path class="st30" d="M504.7,167.9l33.2,57.6l7.3-4.3C567.3,208,581,184,581,158.1v-44.4l-86.1-48.9v66.5
			C494.9,144.2,498.2,156.8,504.7,167.9z"/>
		<path class="st31" d="M519.4,120.4l37.8,21.8c1.4,0.8,2.3,2.3,2.3,4V188c0,1.6-1.7,2.5-3,1.7l-37.8-21.8c-1.4-0.8-2.3-2.3-2.3-4
			v-41.8C516.4,120.6,518,119.6,519.4,120.4z"/>
		<path class="st32" d="M540.5,108.9L540.5,108.9c5.9,3.5,9.6,9.8,9.6,16.7v32.1l-24.3-14.2v-26.2
			C525.8,109.8,534,105.1,540.5,108.9z"/>
		<ellipse class="st2" cx="535.3" cy="149.6" rx="3.4" ry="6.6"/>
		<polygon class="st2" points="535.3,149.6 539.8,166.3 529.7,160.5 		"/>
	</g>
	<path class="st2" d="M747.2,989.9l-47.5,36.6c-5.8,4.5-3.2,13.8,4.2,14.5l0.5,0c9.1,0.9,18.3-1,26.3-5.3l44.6-24.2L747.2,989.9z"/>
	<path class="st2" d="M619.9,951.6l-47.5,36.6c-5.8,4.5-3.2,13.8,4.2,14.5l0.5,0c9.1,0.9,18.3-1,26.3-5.3l44.6-24.2L619.9,951.6z"/>
	<linearGradient id="SVGID_21_" gradientUnits="userSpaceOnUse" x1="816.1161" y1="524.5482" x2="816.1161" y2="912.5688">
		<stop  offset="0" style="stop-color:#57BDFF"/>
		<stop  offset="1" style="stop-color:#E2EBFB;stop-opacity:0"/>
	</linearGradient>
	<polygon class="st33" points="688,1119 688,667.3 944.2,519.4 944.2,971.1 	"/>
	<polygon class="st2" points="688,683.5 688,667.7 944.2,519.8 944.2,535.5 	"/>
	<linearGradient id="SVGID_22_" gradientUnits="userSpaceOnUse" x1="431.9032" y1="524.5482" x2="431.9032" y2="912.5688">
		<stop  offset="0" style="stop-color:#57BDFF"/>
		<stop  offset="1" style="stop-color:#E2EBFB;stop-opacity:0"/>
	</linearGradient>
	<polygon class="st34" points="175.8,823.2 175.8,371.5 688,667.2 688,1119 	"/>
	<polygon class="st35" points="175.8,387.7 175.8,371.9 688,667.6 688,683.5 	"/>
</g>
</svg>
