<?xml version="1.0" encoding="utf-8"?>
<!-- Generator: Adobe Illustrator 22.0.1, SVG Export Plug-In . SVG Version: 6.00 Build 0)  -->
<svg version="1.1" id="Layer_1" xmlns="http://www.w3.org/2000/svg" xmlns:xlink="http://www.w3.org/1999/xlink" x="0px" y="0px"
	 width="1120px" height="1120px" viewBox="0 0 1120 1120" style="enable-background:new 0 0 1120 1120;" xml:space="preserve">
<style type="text/css">
	.st0{fill:url(#SVGID_1_);}
	.st1{opacity:0.5;fill:none;stroke:#FFFFFF;stroke-width:0.6789;stroke-linejoin:round;stroke-miterlimit:10;}
	.st2{fill:url(#SVGID_2_);}
	.st3{fill:url(#SVGID_3_);}
	.st4{fill:url(#SVGID_4_);}
	.st5{fill:#2E3280;}
	.st6{fill:#222A72;}
	.st7{fill:#57BDFF;}
	.st8{fill:#B17400;}
	.st9{fill:#3AAEEF;}
	.st10{fill:#E2EBFB;}
	.st11{fill:#FFFFFF;}
	.st12{fill:url(#SVGID_5_);}
	.st13{fill:none;stroke:#E2EBFB;stroke-width:0.6789;stroke-miterlimit:10;}
	.st14{fill:#CEDBEF;}
	.st15{fill:url(#SVGID_6_);}
	.st16{fill:url(#SVGID_7_);}
	.st17{fill:url(#SVGID_8_);}
	.st18{fill:none;stroke:#E2EBFB;stroke-width:1.5;stroke-linecap:round;stroke-miterlimit:10;}
	.st19{fill:none;stroke:#E2EBFB;stroke-width:1.5;stroke-linecap:round;stroke-linejoin:round;stroke-miterlimit:10;}
	.st20{opacity:0.35;}
	.st21{opacity:0.95;fill:url(#SVGID_9_);}
	.st22{opacity:0.95;fill:url(#SVGID_10_);}
	.st23{opacity:0.95;fill:url(#SVGID_11_);}
</style>
<g>
	<linearGradient id="SVGID_1_" gradientUnits="userSpaceOnUse" x1="837.4431" y1="697.1024" x2="837.4431" y2="1236.1522">
		<stop  offset="0" style="stop-color:#00BDFF"/>
		<stop  offset="1" style="stop-color:#5763FF"/>
	</linearGradient>
	<polygon class="st0" points="665.1,1094.1 1009.8,899.3 1009.8,563.3 665.1,762.4 	"/>
	<polygon class="st1" points="215.2,216.1 125.1,165.2 125.1,25.9 215.2,76.9 	"/>
	<polygon class="st1" points="335.1,284.1 245,233.1 245,93.9 335.1,144.8 	"/>
	<linearGradient id="SVGID_2_" gradientUnits="userSpaceOnUse" x1="1226.5454" y1="878.282" x2="-126.3869" y2="119.3199">
		<stop  offset="0" style="stop-color:#57BDFF"/>
		<stop  offset="1" style="stop-color:#E2EBFB;stop-opacity:0"/>
	</linearGradient>
	<polygon class="st2" points="320.2,563.1 665.1,364.2 1009.7,563.3 665.1,762.4 	"/>
	<linearGradient id="SVGID_3_" gradientUnits="userSpaceOnUse" x1="492.7402" y1="664.8188" x2="492.7402" y2="1158.4825">
		<stop  offset="0" style="stop-color:#00BDFF"/>
		<stop  offset="1" style="stop-color:#5763FF"/>
	</linearGradient>
	<polygon class="st3" points="320.4,907.3 665.1,1094.1 665.1,762.4 320.4,563.3 	"/>
	<linearGradient id="SVGID_4_" gradientUnits="userSpaceOnUse" x1="790.3814" y1="753.281" x2="1072.3815" y2="1205.281">
		<stop  offset="0" style="stop-color:#2E3280"/>
		<stop  offset="1" style="stop-color:#E2EBFB;stop-opacity:0"/>
	</linearGradient>
	<polygon class="st4" points="665.1,1094.1 1009.8,899.3 1009.8,563.3 665.1,762.4 	"/>
	<g>
		<path class="st5" d="M839.3,158.6c0-0.2,0-0.3,0-0.5c-1.2-19.3-17-35-36.3-36.1c-22.5-1.4-41.2,16.5-41.2,38.7
			c0,19,13.7,34.8,31.7,38.1c-6.1,8.8-9.4,19.7-8.5,31.5c1.8,23.9,21.3,43.3,45.2,44.9c28.5,2,52.2-20.6,52.2-48.7
			c0-19.2-11.1-35.9-27.3-43.8C845.8,178.1,839.8,168.9,839.3,158.6z"/>
		<g>
			<path class="st6" d="M855.2,182.7c-9.3-4.6-15.3-13.7-15.9-24.1c0-0.2,0-0.3,0-0.5c-0.6-9.4-4.6-17.9-10.8-24.3
				c5.9,9.4,7.9,21.2,4.4,32.3c0,0.1-0.1,0.3-0.1,0.4c-3.2,9.9-0.9,20.6,6.2,28.2c12.3,13.2,16.7,32.7,9.8,50.7
				c-5.2,13.4-15.6,23.3-28.1,28c3.1,0.9,6.3,1.5,9.7,1.7c28.5,2,52.2-20.6,52.2-48.7C882.5,207.2,871.3,190.6,855.2,182.7z"/>
		</g>
		<g>
			<circle class="st5" cx="819.4" cy="350.8" r="29.3"/>
			<polygon class="st5" points="790.1,350.8 790.1,481.8 814.6,481.8 848,357.2 			"/>
			<circle class="st5" cx="802.3" cy="481.8" r="12.3"/>
			<path class="st5" d="M790.1,481.8v145.8h14.4l14.4-74.5c2.7-13.8,2.9-27.9,0.6-41.7l-4.9-29.6H790.1z"/>
		</g>
		<g>
			<circle class="st5" cx="784.9" cy="325" r="29.3"/>
			<polygon class="st5" points="755.6,325 755.6,456 780.1,456 813.5,331.5 			"/>
			<circle class="st5" cx="767.8" cy="456" r="12.3"/>
			<path class="st5" d="M755.6,456v145.8H770l14.4-74.5c2.7-13.8,2.9-27.9,0.6-41.7l-4.9-29.6H755.6z"/>
		</g>
		<path class="st7" d="M823.7,215.8l-29.8-16c-11-5.9-24.4,1.2-25.8,13.5L755.6,325c4.9,6.2,16,18.6,34.5,25.7
			c27.6,10.7,52.2,2.4,58.7,0c-3.8-38.3-7.7-76.5-11.5-114.8C836.3,227.5,831.3,219.9,823.7,215.8z"/>
		<ellipse class="st8" cx="800.2" cy="167.9" rx="26.3" ry="35.6"/>
		<polygon class="st8" points="815.8,211.6 809,179.7 796,179.7 788.4,230.2 		"/>
		<path class="st5" d="M790.1,616.1l-20.7,12.1c-2.8,1.6-1.2,5.8,1.9,5.3l33.2-5.9L790.1,616.1z"/>
		<path class="st5" d="M755.7,590.2L735,602.3c-2.8,1.6-1.2,5.8,1.9,5.3l33.2-5.9L755.7,590.2z"/>
		<path class="st5" d="M769.9,148.6c5.6,5.5,12.7,11.6,21.6,17.3c16.3,10.5,32,15.6,43.2,18.1c-3.2-15.5-6.4-31-9.7-46.6L806,126
			l-25.3,6.4L769.9,148.6z"/>
		<path class="st5" d="M808.5,175.1c0,0,13.7,8,4.6,23.8l26.4-2.5l-7.4-32.7L808.5,175.1z"/>
		<path class="st9" d="M815.8,261.5c0,0,1.6,32-35,31.8v12.9c0,0,7,20.6,25.8,18.8c18.8-1.8,35.1-1.6,40.8,12.7l-3.8-39.6
			L815.8,261.5z"/>
		<circle class="st7" cx="822" cy="234.9" r="15.6"/>
		<circle class="st7" cx="845.4" cy="305.7" r="12.4"/>
		<polygon class="st7" points="835.7,227.4 857.5,302 834.1,310.1 806.6,237.2 		"/>
		<polygon class="st7" points="840.6,317.1 760.5,302.5 763.4,292 846.6,293.4 		"/>
		<g>
			<polygon class="st10" points="753.2,275.9 751.3,296.8 741.6,296.8 741.6,274.5 			"/>
			<polygon class="st10" points="730,275.9 731.8,296.8 741.6,296.8 741.6,274.5 			"/>
			<ellipse class="st11" cx="741.6" cy="275.9" rx="11.6" ry="6.8"/>
			<ellipse class="st10" cx="741.6" cy="275.9" rx="9.3" ry="5.5"/>
			<ellipse class="st10" cx="741.6" cy="296.8" rx="9.8" ry="5.7"/>
			<ellipse class="st5" cx="741.6" cy="277.5" rx="9" ry="3.9"/>
			<ellipse class="st5" cx="741.6" cy="277.5" rx="9" ry="3.9"/>
		</g>
		<linearGradient id="SVGID_5_" gradientUnits="userSpaceOnUse" x1="617.9971" y1="395.227" x2="810.7082" y2="147.5438">
			<stop  offset="0" style="stop-color:#FFFFFF"/>
			<stop  offset="1" style="stop-color:#E2EBFB;stop-opacity:0"/>
		</linearGradient>
		<path class="st12" d="M748.8,135.7c-9.7,9-13.1,23-8.9,35.6c5.5,16.5,3.8,27.5,0.4,34.9c-6.8,14.9-21.2,17.4-24.7,31.3
			c-3.5,14.2,7.1,29.1,17.1,39.9c0.5,0.6,3.7,3.9,9,3.9c4.2,0,7.8-1.6,9-3.9c3.4-6.5,9.4-16.1,19.4-25.1c17-15.4,28.2-13,45.3-25.5
			c19.9-14.6,16.1-26.2,34.6-44.5c2.9-2.9,6.5-6,10.8-9.1c21.9-15.8,17.4-49.7-7.9-59.1c-13.9-5.2-29-7.3-44.1-5.9
			C781.4,110.8,761.5,124,748.8,135.7z"/>
		<path class="st13" d="M750.9,282.7l3.6,2.2c1.6,1,2.5,2.9,2.2,4.8l-0.6,3.4c-0.4,2.5-3.3,3.9-5.5,2.6l-2.3-1.3"/>
		<path class="st8" d="M763.4,292l-8.8-6.1c-4.1-0.4-7.8,2.6-8.4,6.5c-0.5,3.6,1.8,7.3,5.4,8.4c3,0.6,6,1.2,8.9,1.8L763.4,292z"/>
	</g>
	<g>
		<g>
			<circle class="st5" cx="620.7" cy="367.1" r="29.3"/>
			<polygon class="st5" points="591.4,367.1 591.4,498.1 615.9,498.1 649.3,373.5 			"/>
			<circle class="st5" cx="603.7" cy="498.1" r="12.3"/>
			<path class="st5" d="M591.4,498.1v145.8h14.4l14.4-74.5c2.7-13.8,2.9-27.9,0.6-41.7l-4.9-29.6H591.4z"/>
		</g>
		<g>
			<circle class="st5" cx="586.2" cy="341.3" r="29.3"/>
			<polygon class="st5" points="556.9,341.3 556.9,472.3 581.4,472.3 614.9,347.8 			"/>
			<circle class="st5" cx="569.2" cy="472.3" r="12.3"/>
			<path class="st5" d="M556.9,472.3v145.8h14.4l14.4-74.5c2.7-13.8,2.9-27.9,0.6-41.7l-4.9-29.6H556.9z"/>
		</g>
		<path class="st10" d="M625,232.1l-29.8-16c-11-5.9-24.4,1.2-25.8,13.5l-12.6,111.7c4.9,6.2,16,18.6,34.5,25.7
			c27.6,10.7,52.2,2.4,58.7,0c-3.8-38.3-7.7-76.5-11.5-114.8C637.7,243.7,632.6,236.2,625,232.1z"/>
		<ellipse class="st8" cx="601.6" cy="184.2" rx="26.3" ry="35.6"/>
		<path class="st8" d="M617.1,227.9l-6.8-31.9h-13l-4.2,28c-1.3,8.6,8.2,14.6,15.4,9.7L617.1,227.9z"/>
		<path class="st5" d="M591.4,632.3l-20.7,12.1c-2.8,1.6-1.2,5.8,1.9,5.3l33.2-5.9L591.4,632.3z"/>
		<path class="st5" d="M557,606.5l-20.7,12.1c-2.8,1.6-1.2,5.8,1.9,5.3l33.2-5.9L557,606.5z"/>
		<circle class="st10" cx="623.4" cy="251.1" r="15.6"/>
		<path class="st14" d="M637.6,257.4c0,0,4.1,38.7-11.7,44.9c-15.8,6.2-11.3,47.3-39.7,39c-28.4-8.3-25.6-33.6-25.6-33.6l33.2,1
			L637.6,257.4z"/>
		<circle class="st10" cx="581.5" cy="312.6" r="12.4"/>
		<polygon class="st10" points="637.6,257.4 591.8,320.2 571.2,306.6 612.1,240.4 		"/>
		<polygon class="st10" points="571.2,319.4 512.5,263 520.7,255.8 589.3,303 		"/>
		<path class="st8" d="M520.7,255.8l-28.3-24.4c0,2.6,1.1,5.1,3.1,6.7l9.1,7.8l0,0c-3,6.3-0.1,13.7,6.3,16.4l1.6,0.7
			c0.9-0.1,3.8-0.6,6-3.1C520,258.3,520.5,256.7,520.7,255.8z"/>
		<path class="st5" d="M597.7,172.8h7.9c7,0,13.5,4,16.3,10.5c0,0.1,0,0.1,0.1,0.2c3.9,9.2,2.2,17.7,1.4,20.7
			c2.9-4.5,5.9-9,8.8-13.5c15.8-24.3-1.6-56.3-30.6-56.3h-39.7l6.1,17.4C572.3,164.3,584.3,172.8,597.7,172.8z"/>
	</g>
	<linearGradient id="SVGID_6_" gradientUnits="userSpaceOnUse" x1="640.7502" y1="466.4551" x2="251.8005" y2="7.4945">
		<stop  offset="0" style="stop-color:#FFFFFF;stop-opacity:0"/>
		<stop  offset="0.2625" style="stop-color:#F2F6FD;stop-opacity:0.2625"/>
		<stop  offset="0.6257" style="stop-color:#E6EEFC;stop-opacity:0.6257"/>
		<stop  offset="1" style="stop-color:#E2EBFB"/>
	</linearGradient>
	<polygon class="st15" points="626.9,498.1 386.2,359.1 386.2,118.2 626.9,257.2 	"/>
	<linearGradient id="SVGID_7_" gradientUnits="userSpaceOnUse" x1="597.4142" y1="466.4551" x2="208.4646" y2="7.4945">
		<stop  offset="0" style="stop-color:#FFFFFF;stop-opacity:0"/>
		<stop  offset="7.773645e-02" style="stop-color:#E4F4FF;stop-opacity:8.283746e-02"/>
		<stop  offset="0.217" style="stop-color:#B9E4FF;stop-opacity:0.2312"/>
		<stop  offset="0.3586" style="stop-color:#96D6FF;stop-opacity:0.3822"/>
		<stop  offset="0.501" style="stop-color:#7ACBFF;stop-opacity:0.5338"/>
		<stop  offset="0.6444" style="stop-color:#67C3FF;stop-opacity:0.6866"/>
		<stop  offset="0.7893" style="stop-color:#5BBFFF;stop-opacity:0.8411"/>
		<stop  offset="0.9384" style="stop-color:#57BDFF"/>
		<stop  offset="1" style="stop-color:#E2EBFB"/>
	</linearGradient>
	<polygon class="st16" points="583.6,498.1 342.9,359.1 342.9,118.2 583.6,257.2 	"/>
	<g>
		<linearGradient id="SVGID_8_" gradientUnits="userSpaceOnUse" x1="501.466" y1="355.1265" x2="375.3927" y2="192.7594">
			<stop  offset="0" style="stop-color:#2E3280"/>
			<stop  offset="1" style="stop-color:#0C64FF"/>
		</linearGradient>
		<path class="st17" d="M520.1,338.7c0,32-25.9,42.6-58,23.8s-58-60.1-58-92.2s25.9-42.6,58-23.8S520.1,306.7,520.1,338.7z"/>
		<path class="st18" d="M426.7,280c4.6,23.1,24.3,51,46.4,64c8.3,4.9,14.2,6.1,17.4,6.3"/>
		<path class="st18" d="M498.1,331.4c-3.7-23.5-24-52.9-46.8-66.4c-9.4-5.5-15.6-6.4-18.5-6.4c-0.2,0-0.5,0-0.7,0"/>
		<polyline class="st19" points="439.3,288.5 426.4,279 418.9,294.5 		"/>
		<polyline class="st19" points="485.3,322.8 496.9,333.9 506.3,319.4 		"/>
	</g>
	<polygon class="st10" points="200.3,224.8 110.2,173.9 110.2,34.6 200.3,85.6 	"/>
	<polygon class="st10" points="320.2,292.8 230.1,241.9 230.1,102.6 320.2,153.5 	"/>
	<polygon class="st1" points="882.7,597.7 792.6,546.8 792.6,407.6 882.7,458.5 	"/>
	<polygon class="st1" points="762.5,530.4 672.4,479.5 672.4,340.2 762.5,391.1 	"/>
	<polygon class="st1" points="1002.6,665.7 912.5,614.8 912.5,475.5 1002.6,526.5 	"/>
	<g class="st20">
		<path class="st7" d="M275.2,205.9L275.2,205.9c-16.6-9.8-30-4.3-30,12.3v2.2l60,35.4v-2.2C305.2,237.1,291.7,215.7,275.2,205.9z"
			/>

			<ellipse transform="matrix(0.8009 -0.5987 0.5987 0.8009 -50.1289 199.6185)" class="st7" cx="275.1" cy="175.2" rx="15.5" ry="27.6"/>
	</g>
	<g class="st20">
		<path class="st7" d="M155.3,138L155.3,138c-16.6-9.8-30-4.3-30,12.3v2.2l60,35.4v-2.2C185.3,169.1,171.8,147.7,155.3,138z"/>

			<ellipse transform="matrix(0.8009 -0.5987 0.5987 0.8009 -33.3075 114.3024)" class="st7" cx="155.2" cy="107.2" rx="15.5" ry="27.6"/>
	</g>
	<linearGradient id="SVGID_9_" gradientUnits="userSpaceOnUse" x1="655.0381" y1="392.7154" x2="750.5273" y2="488.2046">
		<stop  offset="0" style="stop-color:#2CD3D8"/>
		<stop  offset="1" style="stop-color:#2CD180"/>
	</linearGradient>
	<polygon class="st21" points="747.7,535.4 657.6,484.5 657.6,345.3 747.7,396.2 	"/>
	<linearGradient id="SVGID_10_" gradientUnits="userSpaceOnUse" x1="894.8347" y1="528.6278" x2="990.3239" y2="624.117">
		<stop  offset="0" style="stop-color:#2CD3D8"/>
		<stop  offset="1" style="stop-color:#2CD180"/>
	</linearGradient>
	<polygon class="st22" points="987.5,671.4 897.4,620.4 897.4,481.2 987.5,532.1 	"/>
	<linearGradient id="SVGID_11_" gradientUnits="userSpaceOnUse" x1="778.2416" y1="412.8901" x2="866.1108" y2="602.0001">
		<stop  offset="0" style="stop-color:#57BDFF"/>
		<stop  offset="1" style="stop-color:#2E3280"/>
	</linearGradient>
	<polygon class="st23" points="867.6,603.4 777.5,552.5 777.5,413.2 867.6,464.2 	"/>
	<polyline class="st19" points="681.1,433.9 690.6,447.6 722.7,431.7 	"/>
	<polyline class="st19" points="920.9,569.8 930.4,583.5 962.5,567.7 	"/>
	<g>
		<line class="st19" x1="799.6" y1="477" x2="829.7" y2="528.9"/>
		<line class="st19" x1="799.6" y1="511.6" x2="829.7" y2="494.3"/>
	</g>
</g>
</svg>
