<svg version="1.1"
	 xmlns="http://www.w3.org/2000/svg" xmlns:xlink="http://www.w3.org/1999/xlink" xmlns:a="http://ns.adobe.com/AdobeSVGViewerExtensions/3.0/"
	 x="0px" y="0px" width="227px" height="48px" viewBox="0 0 227 48" overflow="visible" enable-background="new 0 0 227 48"
	 xml:space="preserve">
<defs>
</defs>
<path d="M54.238,16.271l0.928-3.488h13.598l-1.348,3.488c-1.068-0.094-1.873-0.141-2.416-0.141h-1.883v15.264h-3.681
	c0.149-2.324,0.225-3.619,0.225-3.879V16.131h-2.372C56.233,16.131,55.217,16.178,54.238,16.271z"/>
<path d="M69.27,31.367c0-0.26,0.014-0.66,0.041-1.201c0.029-0.538,0.043-0.948,0.043-1.228c0-9.561,0-14.956,0-16.183h3.512
	c0,0.26,0,0.66,0,1.199c0,0.54,0,0.939,0,1.2v4.353c0.962-0.465,1.852-0.697,2.666-0.697c1.406,0,2.537,0.451,3.389,1.353
	c0.852,0.903,1.277,2.07,1.277,3.503c0,0.781,0,1.943,0,3.487s0,2.697,0,3.46l0.085,0.754h-3.624
	c0.056-1.135,0.084-1.852,0.084-2.149v-4.995c0-1.523-0.67-2.287-2.008-2.287c-0.586,0-1.209,0.214-1.869,0.643
	c0,4.816,0,7.746,0,8.789H69.27z"/>
<path d="M94.217,25.842h-9.215c0.411,1.768,1.386,2.65,2.922,2.65c1.199,0,2.443-0.642,3.736-1.925l2.416,2.12
	c-0.918,1.042-1.799,1.796-2.641,2.261c-0.992,0.54-2.127,0.809-3.399,0.809c-1.816,0-3.354-0.622-4.608-1.869
	c-1.254-1.246-1.882-2.771-1.882-4.576c0-1.86,0.628-3.441,1.882-4.743c1.255-1.303,2.81-1.953,4.665-1.953
	c1.011,0,2.003,0.256,2.978,0.768s1.715,1.186,2.219,2.022C93.907,22.428,94.217,23.907,94.217,25.842z M85.227,23.498h5.395
	c-0.674-1.172-1.573-1.758-2.697-1.758c-0.617,0-1.143,0.168-1.574,0.502C86.088,22.447,85.713,22.866,85.227,23.498z"/>
<path d="M99.386,31.367c0.337-1.414,0.58-2.967,0.73-4.66c0.261-3.106,0.673-7.768,1.235-13.979h1.908l5.136,8.338l0.393,0.864
	c0.657-1.264,1.53-2.808,2.618-4.629c0.9-1.523,1.801-3.049,2.701-4.573h2.022c0.057,1.023,0.169,2.558,0.337,4.603l0.983,9.488
	c0.17,1.637,0.403,3.153,0.702,4.549h-3.793c-0.074-1.823-0.178-3.451-0.309-4.883c-0.113-1.062-0.234-2.131-0.364-3.209
	c-0.132-1.266-0.179-2.334-0.142-3.209c-0.111,0.278-0.289,0.668-0.533,1.172l-4.214,7.115c-0.881-1.414-1.761-2.837-2.642-4.27
	c-1.404-2.344-2.126-3.692-2.162-4.046c0,0.372-0.02,0.921-0.057,1.646l-0.59,6.641c-0.039,0.391-0.047,0.893-0.027,1.507
	c0.035,0.855,0.055,1.367,0.055,1.535H99.386z"/>
<path d="M125.316,18.643c1.873,0,3.461,0.633,4.762,1.897c1.301,1.266,1.955,2.828,1.955,4.688c0,1.804-0.648,3.348-1.939,4.631
	c-1.293,1.283-2.848,1.926-4.664,1.926c-1.836,0-3.395-0.646-4.678-1.939s-1.925-2.85-1.925-4.674c0-1.748,0.642-3.273,1.925-4.576
	C122.035,19.295,123.557,18.643,125.316,18.643z M128.689,25.145c0-0.894-0.32-1.643-0.957-2.246
	c-0.637-0.604-1.404-0.907-2.303-0.907c-0.918,0-1.691,0.315-2.318,0.948c-0.629,0.633-0.939,1.406-0.939,2.316
	c0,0.893,0.322,1.65,0.967,2.273c0.646,0.624,1.42,0.936,2.318,0.936c0.936,0,1.709-0.32,2.318-0.963
	C128.383,26.859,128.689,26.074,128.689,25.145z"/>
<path d="M132.004,22.104v-3.21c0.375,0,0.812,0,1.318,0v-4.381h3.57c0,0.569-0.039,2.03-0.111,4.381
	c0.615,0.056,1.553,0.056,2.809,0v3.265c-0.617-0.012-1.557-0.031-2.809-0.055v4.408c0,1.209,0.289,1.813,0.869,1.813
	c0.355,0,0.795-0.065,1.322-0.195l0.896,2.657c-1.33,0.572-2.33,0.859-3.006,0.859c-2.285,0-3.426-1.554-3.426-4.66v-4.883H132.004z
	"/>
<path d="M140.994,31.367c0.186-1.693,0.279-3.432,0.279-5.219v-9.124c0-1.395-0.027-2.818-0.082-4.269h3.65
	c-0.076,1.096-0.113,2.055-0.113,2.874v13.756c0,0.743,0,1.405,0,1.981H140.994z"/>
<path d="M159.029,25.842h-9.217c0.412,1.768,1.389,2.65,2.926,2.65c1.195,0,2.441-0.642,3.734-1.925l2.416,2.12
	c-0.918,1.042-1.799,1.796-2.641,2.261c-0.992,0.54-2.125,0.809-3.398,0.809c-1.818,0-3.354-0.622-4.609-1.869
	c-1.254-1.246-1.883-2.771-1.883-4.576c0-1.86,0.629-3.441,1.883-4.743c1.256-1.303,2.811-1.953,4.664-1.953
	c1.012,0,2.006,0.256,2.979,0.768c0.975,0.512,1.713,1.186,2.221,2.022C158.721,22.428,159.029,23.907,159.029,25.842z
	 M150.041,23.498h5.393c-0.676-1.172-1.572-1.758-2.695-1.758c-0.619,0-1.145,0.168-1.576,0.502
	C150.902,22.447,150.529,22.866,150.041,23.498z"/>
<path d="M158.861,19.646l3.133-1.514c0.244,0.482,1.537,3.074,3.887,7.775l2.08-4.895c0.207-0.465,0.469-1.172,0.787-2.12h3.879
	c-1.178,2.661-2.93,6.66-5.254,11.999c-0.75,1.729-1.367,2.911-1.854,3.544c-0.918,1.209-2.033,1.812-3.344,1.812
	c-0.748,0-1.807-0.308-3.174-0.921l1.123-3.012c0.861,0.408,1.498,0.612,1.91,0.612c0.467,0,0.898-0.382,1.291-1.144
	c0.264-0.613,0.527-1.219,0.789-1.813L158.861,19.646z"/>
<path d="M177.711,12.756h13.121l-1.316,3.432c-2.988-0.094-4.398-0.14-4.23-0.14h-4.117v4.214l3.695,0.027h2.072l2.352-0.111
	l-1.035,3.32h-7.084v4.928c0,0.355,0.018,0.855,0.057,1.498c0.035,0.645,0.055,1.125,0.055,1.443h-3.568c0-0.894,0-1.944,0-3.154
	V12.756z"/>
<path d="M196.199,18.643c1.871,0,3.459,0.633,4.76,1.897c1.303,1.266,1.953,2.828,1.953,4.688c0,1.804-0.645,3.348-1.939,4.631
	c-1.289,1.283-2.846,1.926-4.662,1.926c-1.836,0-3.395-0.646-4.678-1.939s-1.924-2.85-1.924-4.674c0-1.748,0.641-3.273,1.924-4.576
	C192.916,19.295,194.438,18.643,196.199,18.643z M199.568,25.145c0-0.894-0.316-1.643-0.953-2.246
	c-0.639-0.604-1.404-0.907-2.305-0.907c-0.916,0-1.691,0.315-2.318,0.948s-0.941,1.406-0.941,2.316c0,0.893,0.324,1.65,0.969,2.273
	c0.646,0.624,1.42,0.936,2.32,0.936c0.934,0,1.707-0.32,2.316-0.963S199.568,26.074,199.568,25.145z"/>
<path d="M210.441,18.643c1.873,0,3.461,0.633,4.764,1.897c1.299,1.266,1.951,2.828,1.951,4.688c0,1.804-0.646,3.348-1.938,4.631
	c-1.293,1.283-2.848,1.926-4.666,1.926c-1.836,0-3.395-0.646-4.676-1.939c-1.285-1.293-1.924-2.85-1.924-4.674
	c0-1.748,0.639-3.273,1.924-4.576C207.158,19.295,208.68,18.643,210.441,18.643z M213.812,25.145c0-0.894-0.318-1.643-0.955-2.246
	c-0.637-0.604-1.404-0.907-2.305-0.907c-0.916,0-1.689,0.315-2.318,0.948c-0.625,0.633-0.939,1.406-0.939,2.316
	c0,0.893,0.324,1.65,0.967,2.273c0.65,0.624,1.422,0.936,2.32,0.936c0.938,0,1.709-0.32,2.318-0.963
	C213.508,26.859,213.812,26.074,213.812,25.145z"/>
<path d="M218.672,31.367c0.189-1.693,0.281-3.432,0.281-5.219v-9.124c0-1.395-0.025-2.818-0.084-4.269h3.652
	c-0.074,1.096-0.111,2.055-0.111,2.874v13.756c0,0.743,0,1.405,0,1.981H218.672z"/>
<path fill="#7C7C7C" d="M226.913,30.062c0,0.849-0.662,1.509-1.521,1.509c-0.857,0-1.518-0.66-1.518-1.509
	c0-0.847,0.66-1.508,1.518-1.508C226.251,28.555,226.913,29.216,226.913,30.062z M224.11,30.062c0,0.722,0.547,1.294,1.281,1.294
	c0.736,0,1.283-0.572,1.283-1.294c0-0.72-0.547-1.292-1.283-1.292C224.657,28.771,224.11,29.343,224.11,30.062z M225.058,30.935
	h-0.217v-1.743h0.676c0.396,0,0.57,0.171,0.57,0.483c0,0.308-0.203,0.444-0.441,0.485l0.523,0.774h-0.254l-0.494-0.774h-0.363
	V30.935z M225.343,29.978c0.266,0,0.529-0.008,0.529-0.303c0-0.243-0.205-0.3-0.418-0.3h-0.396v0.603H225.343z"/>
<rect id="White_Frame_2_" fill="#FFFFFF" width="49.881" height="47.946"/>
<g id="Background_2_">
	<rect x="0.896" y="1" fill="#FFFFFF" width="48.103" height="46.087"/>
</g>
<path fill="#FDD1B0" d="M37.364,21.796c-0.153-0.32-8.244-9.48-8.244-9.48l-1.818-1.739l-2.074-9.175H1.402v45.18l29.165,0.004
	c5.035-3.323,2.429-9.136-0.349-10.546c-0.694-0.416-3.522,2.114-8.939-1.495c-3.99-2.661-3.037-7.899-3.037-7.899
	s3.646,5.572,10.677,4.408c0.699-3.548,0.616-3.031,1.474-6.568l-0.021-0.355c4.078,0.02,5.198,0.046,6.038-0.087
	C37.45,23.958,37.887,22.876,37.364,21.796z"/>
<path fill="none" stroke="#000000" stroke-width="0.7216" stroke-linecap="round" d="M26.864,20.714
	c-2.865,0.334-1.737,3.575,0,3.41c7.028,0,8.503,0.081,9.546-0.082c1.04-0.084,1.477-1.166,0.954-2.246
	c-0.153-0.32-8.244-9.48-8.244-9.48l-3.211-3.076"/>
<path fill="none" stroke="#000000" stroke-width="0.7216" stroke-linecap="round" d="M30.422,24.624
	c-0.858,3.534-0.774,3.021-1.477,6.565c-7.028,1.164-10.671-4.407-10.671-4.407s-0.956,5.238,3.036,7.899
	c5.415,3.608,8.245,1.08,8.939,1.496c2.775,1.415,5.293,7.235,0.259,10.558"/>
<ellipse fill="#FFFFFF" cx="15.755" cy="15.395" rx="5.324" ry="4.402"/>
<ellipse fill="#336699" cx="14.238" cy="15.852" rx="3.341" ry="3.2"/>
<ellipse fill="none" stroke="#000000" stroke-width="0.7186" cx="15.755" cy="15.395" rx="5.324" ry="4.402"/>
<path fill="none" stroke="#000000" stroke-width="0.7186" stroke-linecap="round" d="M13.239,6.91
	c3.039-1.165,6.941-0.083,8.071,0.999"/>
<path fill="#FFCC33" stroke="#000000" stroke-width="0.7927" d="M1.402,46.585V34.557c0,0,6.485-0.003,13.146,2.884
	c9.191,3.987,12.717,9.118,12.717,9.118L1.402,46.585z"/>
<path fill="#336699" stroke="#000000" stroke-width="0.7927" stroke-linejoin="round" d="M44.278,1.425
	c1,2.521,2.3,7.386-0.434,12.722c0,0-4.144-11.807-19.421-12.708L44.278,1.425z"/>
<path fill="#CC3300" stroke="#000000" stroke-width="0.7927" d="M18.646,1.425H32.33c0,0,0.903,3.828-0.98,7.512
	c-1.577,3.085-5.267,4.546-5.267,4.546s0.303-3.958-1.577-7.153C22.64,3.159,18.646,1.425,18.646,1.425z"/>
<path fill="#339933" stroke="#000000" stroke-width="0.7927" d="M1.402,1.478l11.192-0.008c0,0-3.879,2.201-7.011,8.089
	c-2.921,5.49-2.021,12.017-2.021,12.017s-0.724-0.777-1.511-1.814c-0.649-0.859-0.649-0.859-0.649-0.859V1.478z"/>
<ellipse fill="#FFCC33" stroke="#000000" stroke-width="0.7927" cx="43.931" cy="17.058" rx="3.342" ry="3.201"/>
<ellipse fill="#FFCC33" stroke="#000000" stroke-width="0.7927" cx="26.343" cy="16.558" rx="3.341" ry="3.203"/>
<path fill="#FFCC33" stroke="#000000" stroke-width="0.7927" d="M8.277,25.078c0,1.77-1.494,3.202-3.34,3.202
	c-1.845,0-3.341-1.433-3.341-3.202c0-1.766,1.496-3.2,3.341-3.2C6.783,21.878,8.277,23.312,8.277,25.078z"/>
<g id="Frame_1_">
	<path d="M48.127,1.872v44.343H1.769V1.872H48.127 M48.999,1H0.896v46.087h48.103V1L48.999,1z"/>
</g>
<path fill="#7C7C7C" d="M53.909,45.062c0,0.849-0.662,1.51-1.521,1.51c-0.857,0-1.518-0.661-1.518-1.51
	c0-0.848,0.66-1.509,1.518-1.509C53.247,43.553,53.909,44.214,53.909,45.062z M51.106,45.062c0,0.722,0.547,1.295,1.281,1.295
	c0.736,0,1.283-0.573,1.283-1.295c0-0.721-0.547-1.293-1.283-1.293C51.653,43.769,51.106,44.341,51.106,45.062z M52.054,45.934
	h-0.217v-1.744h0.676c0.396,0,0.57,0.171,0.57,0.483c0,0.309-0.203,0.445-0.441,0.486l0.523,0.774h-0.254l-0.494-0.774h-0.363
	V45.934z M52.339,44.977c0.266,0,0.529-0.008,0.529-0.304c0-0.243-0.205-0.3-0.418-0.3h-0.396v0.604H52.339z"/>
</svg>
