<?xml version="1.0" encoding="UTF-8"?>
<svg width="112px" height="112px" viewBox="0 0 112 112" version="1.1" xmlns="http://www.w3.org/2000/svg" xmlns:xlink="http://www.w3.org/1999/xlink">
    <!-- Generator: Sketch 49 (51002) - http://www.bohemiancoding.com/sketch -->
    <title>requester</title>
    <desc>Created with Sketch.</desc>
    <defs></defs>
    <g id="requester" stroke="none" stroke-width="1" fill="none" fill-rule="evenodd">
        <g id="Page-1" transform="translate(4.000000, 6.000000)" stroke="#2CD280" stroke-width="2">
            <path d="M30,55.8333333 C30,61.6666667 26.7283333,66.6666667 21.6666667,66.6666667 C16.605,66.6666667 13.3333333,61.6666667 13.3333333,55.8333333 C13.3333333,50 15,46.6666667 21.6666667,46.6666667 C28.3333333,46.6666667 30,50 30,55.8333333 Z" id="Stroke-1"></path>
            <path d="M26.6666667,65 L36.6666667,71.6666667 L36.6666667,75 C36.6666667,77.7616667 35,80 33.3333333,80 L10,80 C8.33333333,80 6.66666667,77.7616667 6.66666667,75 L6.66666667,71.6666667 L16.6666667,65" id="Stroke-3"></path>
            <path d="M43.3333333,83.3333333 C43.3333333,85.1733333 41.84,86.6666667 40,86.6666667 L31.6666667,86.6666667 L38.3333333,100 L11.6666667,86.6666667 L3.33333333,86.6666667 C1.49166667,86.6666667 0,85.1733333 0,83.3333333 L0,43.3333333 C0,41.4916667 1.49166667,40 3.33333333,40 L40,40 C41.84,40 43.3333333,41.4916667 43.3333333,43.3333333 L43.3333333,83.3333333 Z" id="Stroke-5" stroke-linejoin="round"></path>
            <path d="M90,39.1666667 C90,45 86.7283333,50 81.6666667,50 C76.605,50 73.3333333,45 73.3333333,39.1666667 C73.3333333,33.3333333 75,30 81.6666667,30 C88.3333333,30 90,33.3333333 90,39.1666667 Z" id="Stroke-7"></path>
            <path d="M86.6666667,48.3333333 L96.6666667,55 L96.6666667,58.3333333 C96.6666667,61.095 95,63.3333333 93.3333333,63.3333333 L70,63.3333333 C68.3333333,63.3333333 66.6666667,61.095 66.6666667,58.3333333 L66.6666667,55 L76.6666667,48.3333333" id="Stroke-9"></path>
            <path d="M71.6666667,23.3333333 L100,23.3333333 C101.84,23.3333333 103.333333,24.825 103.333333,26.6666667 L103.333333,66.6666667 C103.333333,68.5066667 101.84,70 100,70 L91.6666667,70 L65,83.3333333 L71.6666667,70 L63.3333333,70 C61.4916667,70 60,68.5066667 60,66.6666667 L60,51.6666667" id="Stroke-11" stroke-linejoin="round"></path>
            <path d="M53.3333333,15.8333333 C53.3333333,21.6666667 50.0616667,26.6666667 45,26.6666667 C39.9383333,26.6666667 36.6666667,21.6666667 36.6666667,15.8333333 C36.6666667,10 38.3333333,6.66666667 45,6.66666667 C51.6666667,6.66666667 53.3333333,10 53.3333333,15.8333333 Z" id="Stroke-13"></path>
            <polyline id="Stroke-15" points="30 35 30 31.6666667 40 25"></polyline>
            <path d="M50,25 L60,31.6666667 L60,35 C60,37.7616667 58.3333333,40 56.6666667,40 L48.3333333,40" id="Stroke-17"></path>
            <path d="M23.3333333,35 L23.3333333,3.33333333 C23.3333333,1.49166667 24.825,0 26.6666667,0 L63.3333333,0 C65.1733333,0 66.6666667,1.49166667 66.6666667,3.33333333 L66.6666667,43.3333333 C66.6666667,45.1733333 65.1733333,46.6666667 63.3333333,46.6666667 L55,46.6666667 L48.335,56.6683333" id="Stroke-19" stroke-linejoin="round"></path>
        </g>
    </g>
</svg>