<svg xmlns="http://www.w3.org/2000/svg" width="104" height="130" viewBox="0 0 104.26 100.47"><style>path{fill:#eb4c49}</style><path d="M40.28 0c-9.39 0-18.59 4.2-25.91 11.82C4.65 21.94-.57 36.61.05 52.05c1.25 31 27 46.94 39.89 48.2 1.5.15 2.88.22 4.17.22 11 0 14.75-5 15.9-9.56 1.35-5.33-2.4-10.27-6-15-3.18-4.18-6.19-8.13-4.76-11.26a3.1 3.1 0 0 1 2.5-1.89c3.71-.62 9.8 6.17 14.26 11.12 1.81 2 3.53 3.91 5 5.2a5.76 5.76 0 0 0 5.43 1.34 7.92 7.92 0 0 0 5.27-5.27c1.66-5.08 3-14.21 3.29-22.72A53 53 0 0 0 70 14C61.41 5.09 50.59 0 40.28 0zm41.65 52.28c-.35 9.54-1.83 17.87-3.15 21.89a5 5 0 0 1-3.19 3.31 2.74 2.74 0 0 1-2.65-.66c-1.31-1.19-3-3-4.73-5-5.46-6.06-11.65-12.91-17-12.07a6 6 0 0 0-4.75 3.61C44.32 68.13 48 73 51.59 77.69c3.2 4.2 6.51 8.55 5.51 12.48-1.44 5.67-7.11 8.06-16.86 7.1-12-1.18-36-16.13-37.19-45.34-.59-14.63 4.32-28.49 13.48-38C23.28 6.87 31.72 3 40.28 3c9.5 0 19.53 4.75 27.53 13a50 50 0 0 1 14.12 36.28z"/><path d="M36.55 13.59a5.63 5.63 0 1 0 8 0 5.63 5.63 0 0 0-8 0zm5.84 5.84a2.63 2.63 0 1 1 0-3.72 2.63 2.63 0 0 1 0 3.72zm14.83 3.98a5.64 5.64 0 1 0 8 0 5.63 5.63 0 0 0-8 0zm5.85 5.85a2.64 2.64 0 1 1 0-3.73 2.66 2.66 0 0 1 0 3.73zM12.48 44.45a5.63 5.63 0 1 0 8 0 5.59 5.59 0 0 0-8 0zm5.84 5.85a2.63 2.63 0 0 1-4.49-1.86 2.58 2.58 0 0 1 .77-1.86 2.63 2.63 0 1 1 3.72 3.72zm3.26-27.48a5.57 5.57 0 0 0-4 1.65 5.63 5.63 0 0 0 0 8 5.63 5.63 0 0 0 8 0 5.63 5.63 0 0 0 0-8 5.55 5.55 0 0 0-4-1.65zm1.86 7.49a2.68 2.68 0 0 1-3.72 0 2.63 2.63 0 0 1 1.86-4.49 2.59 2.59 0 0 1 1.86.77 2.63 2.63 0 0 1 0 3.72zm80.64 50.02l-4.15-7.58v-4.58a4.42 4.42 0 0 0 2.92-4.17v-3.63a4.36 4.36 0 0 0-1.34-3.15 3.48 3.48 0 0 0 .48-1.63l2-17.42a1.31 1.31 0 0 0 0-.28L102 9.43A3.46 3.46 0 0 0 98.53 6h-.21a3.46 3.46 0 0 0-3.45 3.4l-2 28.46a.88.88 0 0 0 0 .28l2 17.42a3.36 3.36 0 0 0 .47 1.63A4.4 4.4 0 0 0 94 60.37V64a4.42 4.42 0 0 0 2.92 4.14v4.58l-4.15 7.58a1.52 1.52 0 0 0-.12 1.16l4.34 14a1.49 1.49 0 0 0 2.86 0l4.34-14a1.52 1.52 0 0 0-.11-1.13zM97 60.37a1.42 1.42 0 1 1 2.84 0V64A1.42 1.42 0 1 1 97 64zM98.32 56a.46.46 0 0 1-.45-.46v-.17L95.83 38l2-28.36a.45.45 0 0 0 0-.11.46.46 0 0 1 .49-.53h.21a.47.47 0 0 1 .46.46.45.45 0 0 0 0 .11L101 38l-2 17.32v.17a.47.47 0 0 1-.46.46zm.11 34l-2.71-8.75 2.71-4.95 2.71 4.95z"/></svg>