<svg xmlns="http://www.w3.org/2000/svg" width="110" height="140" viewBox="0 0 110.13 140.24"><style>path{fill:#eb4c49}</style><path d="M109.69 97.63l-8.23-8.23-6.61-6.61a48.6 48.6 0 0 0-68.7-68.7L12.5.44a1.5 1.5 0 0 0-2.12 2.12l6 6a59.4 59.4 0 0 0 1 83 59 59 0 0 0 40.12 17.32v28.36H37.65a1.5 1.5 0 0 0 0 3h42.71a1.5 1.5 0 1 0 0-3H60.5V108.9a59 59 0 0 0 39.87-16.35l7.2 7.2a1.49 1.49 0 0 0 1.06.44 1.53 1.53 0 0 0 1.06-.44 1.51 1.51 0 0 0 0-2.12zM89.58 83.71l-.19-1.34 8.83-12.45a1.49 1.49 0 0 0 .09-1.6 1.52 1.52 0 0 0-1.25-.77l6.07-4.89a45.76 45.76 0 0 1-13.55 21.05zm-2.7 2.22A45.4 45.4 0 0 1 69.43 94l-.74-2.18 1-4.07a1.5 1.5 0 0 0 0-.89L64.85 73.7a1.5 1.5 0 0 0-1.41-1H52.8l-5.16-5.67.36-6.25 5.36-7.56 5.21-2 5.43-.41.56 1.25a1.51 1.51 0 0 0 1.12.88L76 54.72h4.59a1.5 1.5 0 0 0-.44.43 1.48 1.48 0 0 0-.15 1.46l3.08 6.91a1.52 1.52 0 0 0 .37.5l7.2 6.51a1.49 1.49 0 0 0 1.1.38l2.2-.15-7.35 10.37a1.43 1.43 0 0 0-.26 1.08zM59.46 48.11l.29-.73L61 46l.12-.16.88-1.36.75.11a1.51 1.51 0 0 0 .93-.16l.79-.42 1.86 2.31a1.51 1.51 0 0 0-1.13 1.18 1.22 1.22 0 0 0 0 .26 2.17 2.17 0 0 0-.36 0zm7.16 1.28l2 .9a1.5 1.5 0 0 0 1.9-.57l1.32-2.15.94 1.94a1.5 1.5 0 0 0 2.84-.45l.1-.75a1.47 1.47 0 0 0 .45.48l2.66 1.85a1.45 1.45 0 0 0 1 .26l2.47-.32.21.52-.26.64h-5.9l-9.41-1.62zM85 60.35l1.39 2.25-.7-.6zm18.9-.44a1.56 1.56 0 0 0-.56-.35l-3.34-1.1h.1l3.87.77zm1.21-10.42a46.35 46.35 0 0 1-.51 6.81l-3.6-.7-4.87-3.2a1.48 1.48 0 0 0-1.87.18L92.83 54a1.5 1.5 0 0 0-.37 1.57l1.16 3.28a1.47 1.47 0 0 0 .93.92l5.2 1.76-4.53 3.65-3.84-.18-6-9.74a1.51 1.51 0 0 0-1.23-.7H84a1.49 1.49 0 0 0 .71-.77l.87-2.13a1.48 1.48 0 0 0 0-1.13l-.88-2.16a1.49 1.49 0 0 0-1.58-.92l-3 .39-1.62-1.07v-1.15a1.52 1.52 0 0 0-.5-1.13 1.56 1.56 0 0 0-1.19-.36l-2.49.34a1.56 1.56 0 0 0-.56.2l-.49-1a1.51 1.51 0 0 0-.4-.51l-5.24-4.26a1.5 1.5 0 0 0-2.43 1l-.11.77a1.47 1.47 0 0 0-1 .15l-1.46.77-1.21-.18A1.5 1.5 0 0 0 60 42l-1.35 2-1.32 1.54a1.45 1.45 0 0 0-.26.43l-.42 1.05-1.85.49-1.22-1.76.1-1.46 3.9-.28a1.5 1.5 0 0 0 1.38-1.33l.22-2a1.53 1.53 0 0 0-.4-1.21l-1.11-1.15 4.27-3 2.87-1.59a1.44 1.44 0 0 0 .53-.51l1.54.43a1.47 1.47 0 0 0 .69 0L72 33a1.5 1.5 0 0 0 .82-.46l2.34-2.56a1.52 1.52 0 0 0 .29-1.58l-.15-.4 2.38-.93a1.5 1.5 0 0 0-.42-2.89l-4-.35-.26-1.09 1.77-3.06a1.5 1.5 0 0 0-1.47-2.24l-1.94.22a1.49 1.49 0 0 0-1.21.91l-2.34 5.54a1.49 1.49 0 0 0 .25 1.56l.39.45-1.09 2.29-.92-2.1a1.5 1.5 0 0 0-1.51-.89l-1.48.14v-1.78L68 17.65l6.34-4.86 5.29 3.15-1.11.38a1.5 1.5 0 0 0-.42 2.62l2.8 2.11a1.49 1.49 0 0 0 1.71.06l7.85-5a45.5 45.5 0 0 1 14.61 33.38zm-5.2 8.91l-3.66-1.24-.53-1.48 3.93 2.59zM72 27.72l.35.88-1.37 1.5-1.15.22 1.73-3.67a1.28 1.28 0 0 0 .34.07h.05a1.49 1.49 0 0 0 .05 1zM59.43 3.85A45.43 45.43 0 0 1 88.11 14l-3.41 2.2A1.48 1.48 0 0 0 84 15l-9-5.31a1.51 1.51 0 0 0-1.68.1L66 15.4a1.33 1.33 0 0 0-.29.29l-5 6.71a1.48 1.48 0 0 0-.3.91v3.91a1.51 1.51 0 0 0 .5 1.09 1.45 1.45 0 0 0 1.14.38h.51a1.47 1.47 0 0 0-.37 1.16l.21 1.92-2 1.1a.57.57 0 0 0-.13.08L54.5 37a1.49 1.49 0 0 0-.23 2.26l1.83 1.91-4 .33a1.5 1.5 0 0 0-1.39 1.4l-.2 3.28a1.52 1.52 0 0 0 .26 1l2.11 3-1 .42a1.47 1.47 0 0 0-.68.52l-5.86 8.27a1.48 1.48 0 0 0-.28.77l-.45 7.33A1.46 1.46 0 0 0 45 68.6l6 6.63a1.51 1.51 0 0 0 1.11.49h10.28l4.32 11.75-1 4a1.57 1.57 0 0 0 0 .86l.76 2.21a46.53 46.53 0 0 1-7 .54A45.39 45.39 0 0 1 30.3 84.59l1.9-2.1a1.35 1.35 0 0 0 .31-.53l1.84-5.5L35.47 75a1.5 1.5 0 0 0 .05-1.74l-1.61-2.41a1.49 1.49 0 0 0-.73-.58l-5.58-2-.45-1.39a1.5 1.5 0 0 0-.79-.9l-3.85-1.82-5.09-2a1.51 1.51 0 0 0-.94-.06l-.86.24a45.57 45.57 0 0 1-1.77-10.5l7.71-7.22a1.5 1.5 0 0 0 .44-1.56l-.35-1.36 1.35-.31V42a1.5 1.5 0 0 0 1 1.28l2 .73a1.5 1.5 0 0 0 2-1.56l-.22-2.17-.34-2a1.87 1.87 0 0 0-.13-.4L24.93 33a1.4 1.4 0 0 0-.3-.42l-2.06-2 3.44-2a1.52 1.52 0 0 0 .73-1.58l-.31-2.35a1.82 1.82 0 0 0-.11-.4l-1.81-4.14A45.54 45.54 0 0 1 59.43 3.85zM29.77 80.71l-1.71 1.88A44.54 44.54 0 0 1 24 78.2l-3.14-4.37a45.73 45.73 0 0 1-4.31-8.73l.24-.06 4.53 1.79 3.18 1.51.5 1.46a1.51 1.51 0 0 0 .91 1l5.82 2.14.71 1.06-.64.84a1.46 1.46 0 0 0-.22.43zm-9.58-48.28l2.15 2.12L24 38.07l-4.53 1A1.5 1.5 0 0 0 18.34 41l.52 2-5 4.7A45.45 45.45 0 0 1 15 38.92h.08a1.48 1.48 0 0 0 1.07-.64zm-2.11-2.23c.28-.59.57-1.17.87-1.75l.19.4a1.42 1.42 0 0 0-.41.4zm4.41-6.85l-.24-.28.16-.23 1.07 2.45.15 1.16-1.8 1.06-.26-.51 1.09-1.89a1.5 1.5 0 0 0-.17-1.76zm36.94 82.57A56.44 56.44 0 0 1 3 49.49a56 56 0 0 1 15.49-38.81L24 16.2a48.6 48.6 0 0 0 68.7 68.7l5.53 5.53a56.06 56.06 0 0 1-38.8 15.49z"/></svg>