<svg xmlns="http://www.w3.org/2000/svg" width="215" height="150" viewBox="0 0 215.67 92.96"><style>path{fill:#eb4c49}</style><path d="M210 64.86l-24.31-24a1.13 1.13 0 0 0-.12-.18 15.79 15.79 0 0 0-11.3-4.68H126.4V20.15a1.92 1.92 0 0 0-.11-.54 1.29 1.29 0 0 0-.33-.49L107.1.43A1.53 1.53 0 0 0 106 0H60.87a2.11 2.11 0 0 0-.38.09 1.38 1.38 0 0 0-.33.2l-.08.06a1.74 1.74 0 0 0-.25.29 1.5 1.5 0 0 0-.16.34v.09a1.59 1.59 0 0 0-.06.39V36H15.9A15.9 15.9 0 0 0 5.59 64h.08l24 23.76c.36.39.73.76 1.13 1.12A15.78 15.78 0 0 0 41.4 93h158.36A15.9 15.9 0 0 0 210 64.86zm-27.16-22.63v.05l19.27 19.07a15.73 15.73 0 0 0-2.39-.2h-7.58L169.75 39h4.52a12.78 12.78 0 0 1 8.57 3.23zm-20.7 18.92L139.71 39h25.77l22.43 22.19zM135.44 39l22.43 22.19H132.1l-5.7-5.64V39zm-33.38 22.15l-1.45-1.44h24.29a1.47 1.47 0 0 0 1-.43l1.88 1.87zM97 56.71H81.41V21.65h19.5v5.72a1.5 1.5 0 1 0 3 0v-5.72h19.49v35.06h-19.49V51a1.5 1.5 0 0 0-3 0v5.72H97zM62.56 38.94V5.09l15.85 15.69v33.84zM82.94 3l15.82 15.65H80.53L64.71 3zm38.31 15.65H103L87.2 3h18.23zM60 40.63l18.86 18.65a1.34 1.34 0 0 0 .49.32 1.62 1.62 0 0 0 .54.1h16.46l1.45 1.44H72L49.59 39h10v.6a1.49 1.49 0 0 0 .41 1.03zM42 61.15L19.56 39h25.77l22.43 22.15zM15.32 39l22.75 22.5a15.89 15.89 0 0 0-11.92 11l-23-22.73A12.91 12.91 0 0 1 15.32 39zM7.47 61.58s-.1-.06-.15-.1A12.89 12.89 0 0 1 3.2 54l22.32 22.11v.94a15.67 15.67 0 0 0 .23 2.58zM199.76 90H41.4a12.85 12.85 0 0 1-8.47-3.19l-1.14-1.13a12.88 12.88 0 0 1 9.61-21.53h158.36a12.91 12.91 0 1 1 0 25.81z"/><path class="cls-1" d="M54.66 71.54a5.52 5.52 0 1 0 5.52 5.51 5.52 5.52 0 0 0-5.52-5.51zm0 8a2.52 2.52 0 1 1 2.52-2.52 2.52 2.52 0 0 1-2.52 2.55zm131.6-8a5.52 5.52 0 1 0 5.52 5.51 5.51 5.51 0 0 0-5.52-5.51zm0 8a2.52 2.52 0 1 1 2.52-2.52 2.52 2.52 0 0 1-2.52 2.55z"/></svg>