<svg xmlns="http://www.w3.org/2000/svg" width="105" height="130" viewBox="0 0 105.65 104.7"><style>path{fill:#eb4c49}</style><path d="M81.22 5.53h-8.11v-4A1.5 1.5 0 0 0 71.61 0H11.12a1.5 1.5 0 0 0-1.5 1.5v4H1.5A1.5 1.5 0 0 0 0 7v96.2a1.5 1.5 0 0 0 1.5 1.5h79.72a1.5 1.5 0 0 0 1.5-1.5V7a1.5 1.5 0 0 0-1.5-1.47zM12.62 3h57.49v8.06H12.62V3zm67.1 98.7H3V8.53h6.62v4a1.5 1.5 0 0 0 1.5 1.5h60.49a1.5 1.5 0 0 0 1.5-1.5v-4h6.61z"/><path d="M22.65 34.05l-5.5 5.5-2.22-2.22a1.49 1.49 0 0 0-2.12 0 1.51 1.51 0 0 0 0 2.12l3.28 3.28a1.52 1.52 0 0 0 1.06.44 1.5 1.5 0 0 0 1.06-.44l6.56-6.56a1.5 1.5 0 1 0-2.12-2.12zM68.85 38H31.22a1.5 1.5 0 1 0 0 3h37.63a1.5 1.5 0 0 0 0-3zm-46.2 12.77l-5.5 5.5-2.22-2.22a1.5 1.5 0 0 0-2.12 2.12l3.28 3.28a1.47 1.47 0 0 0 1.06.44 1.46 1.46 0 0 0 1.06-.44l6.56-6.56a1.49 1.49 0 0 0 0-2.12 1.51 1.51 0 0 0-2.12 0zm46.2 3.97H31.22a1.5 1.5 0 0 0 0 3h37.63a1.5 1.5 0 0 0 0-3zM22.65 67.5l-5.5 5.5-2.22-2.22a1.49 1.49 0 0 0-2.12 0 1.51 1.51 0 0 0 0 2.12l3.28 3.28a1.53 1.53 0 0 0 1.06.44 1.49 1.49 0 0 0 1.06-.44l6.56-6.56a1.5 1.5 0 1 0-2.12-2.12zm46.2 3.96H31.22a1.5 1.5 0 0 0 0 3h37.63a1.5 1.5 0 0 0 0-3zm35.3-57.8h-7.77a1.5 1.5 0 0 0-1.5 1.5v64.89a1.05 1.05 0 0 0 .06.24.13.13 0 0 1 0 .06l3.89 10.38a1.5 1.5 0 0 0 2.81 0l3.89-10.38a.13.13 0 0 0 0-.06 1.05 1.05 0 0 0 .06-.24.49.49 0 0 0 0-.12V15.16a1.5 1.5 0 0 0-1.44-1.5zm-6.27 10.11h4.77v54.56h-4.77zm0-7.11h4.77v4.11h-4.77zm2.39 69.27l-1.73-4.6H102z"/></svg>