<?xml version="1.0" encoding="utf-8"?>
<!DOCTYPE svg PUBLIC "-//W3C//DTD SVG 1.1//EN" "http://www.w3.org/Graphics/SVG/1.1/DTD/svg11.dtd">
<svg version="1.1" xmlns="http://www.w3.org/2000/svg" xmlns:xlink="http://www.w3.org/1999/xlink" x="0px" y="0px"
	 viewBox="0 0 500 90" enable-background="new 0 0 500 90" xml:space="preserve">
<path d="M25.11,68.09c-3.89-6.24-6.38-14.69-6.38-22.89c0-8.06,2.12-15.64,5.82-22.19l0.42-0.74C28.69,14.8,37.06,9.7,45.22,9.7
	V9.69c5.33,0,11.03,1.57,15.45,3.86l0,0l0,0c8.03,4.95,14.35,12.38,17.92,21.24V21.35c-0.02-3.02-4.61-6.31-4.61-6.31
	c-7.83-5.76-17.51-9.08-27.99-9.09c-4.25,0-10.21,1.08-10.21,1.08l0,0C18.18,10.75,5,26.48,5,45.19C5,65.17,20.07,81.62,39.46,83.8
	c0,0,4.01,0.6,6.68,0.42c11.34,0,21.75-4,29.89-10.66l1.07-1.22c0.97-1.28,1.56-2.87,1.56-4.6V56.57c0-3.31,1.64-6.25,4.13-8.05
	H61.94c2.5,1.8,4.13,4.74,4.13,8.05l0.14,10.45c0,2.08-0.84,3.97-2.2,5.33c-1.71,1.9-8.24,5.22-8.24,5.22
	c-3.16,1.7-6.78,2.66-10.62,2.66C36.46,80.23,28.85,75.32,25.11,68.09L25.11,68.09L25.11,68.09z"/>
<path d="M237.38,44.99c0,18.71,13.17,34.06,30.78,37.77l0,0c0,0,5.95,1.09,10.21,1.08c10.47-0.01,19.98-3.28,27.81-9.04
	c0,0,4.77-2.95,4.79-5.97l1.86-14.23c-5.4,13.42-14.5,18.45-19.77,21.51c-4.42,2.3-10.12,3.95-15.45,3.95v-0.01
	c-8.16,0-16.49-4.67-20.2-12.13l-0.46-0.75c-3.71-6.55-5.83-14.12-5.83-22.19c0-8.07,2.12-15.64,5.83-22.19l0.42-0.74
	c3.71-7.46,12.08-12.56,20.24-12.56V9.48c5.33,0,11.03,1.57,15.45,3.86l0,0l0,0c8.02,4.95,14.35,12.38,17.92,21.24V21.14
	c-0.02-3.02-4.61-6.31-4.61-6.31c-7.83-5.77-17.51-9.08-27.99-9.09c-4.26,0-10.21,1.08-10.21,1.08l0,0
	C250.55,10.54,237.38,26.27,237.38,44.99"/>
<path d="M358.65,45.06c0,18.72,13.17,34.06,30.78,37.78l0,0c0,0,5.96,1.08,10.21,1.08c10.48-0.01,19.98-3.28,27.82-9.04
	c0,0,4.77-2.95,4.78-5.97l1.86-14.23c-5.4,13.42-14.49,18.45-19.78,21.5c-4.42,2.29-10.12,3.95-15.44,3.95v-0.01
	c-8.16,0-16.49-4.67-20.21-12.13l-0.46-0.74c-3.71-6.55-5.82-14.12-5.82-22.19c0-8.06,2.12-15.64,5.82-22.18l0.42-0.75
	c3.71-7.46,12.09-12.56,20.25-12.56V9.56c5.33,0,11.03,1.56,15.44,3.86l0,0l0,0c8.03,4.95,14.35,12.38,17.92,21.25V21.22
	c-0.02-3.01-4.61-6.31-4.61-6.31c-7.83-5.77-17.51-9.08-27.99-9.09c-4.25,0-10.21,1.08-10.21,1.08l0,0
	C371.83,10.62,358.65,26.35,358.65,45.06"/>
<path d="M495,9.15h-20.26c2.49,1.74,4.12,4.61,4.12,7.87v59.14c0,3.18-1.54,5.99-3.9,7.75h19.84c-2.37-1.75-3.91-4.57-3.91-7.75
	V17.02C490.88,13.75,492.51,10.89,495,9.15z"/>
<path d="M144.64,9.15h-20.26c2.49,1.74,4.12,4.68,4.12,7.95l-0.01,0.02v44.14v0.06c0.69,8.06,5.75,14.92,12.81,18.08l0.07,0.04
	c5.76,2.81,12.18,4.46,19.02,4.46c6.94,0,13.5-1.48,19.32-4.37l0.12-0.05c7.05-3.22,12.08-10.07,12.71-18.17l0-0.01v-44.4
	c0-3.27,1.63-6.02,4.12-7.76h-11.83c2.49,1.74,4.12,4.49,4.12,7.76v44.4l-0.02,0.15c-0.5,4.88-2.87,9.2-6.45,12.17l-0.16,0.16
	c-3.99,3.09-11.02,5.45-17.65,5.45c-4.13,0-8.08-0.87-11.72-2.26l-0.38-0.14c-6.51-2.27-11.31-8.38-12.06-15.47l0-0.1V17.12
	l-0.01-0.02C140.5,13.83,142.15,10.89,144.64,9.15z"/>
</svg>
