<?xml version="1.0" encoding="utf-8"?>
<!-- Generator: Adobe Illustrator 19.1.0, SVG Export Plug-In . SVG Version: 6.00 Build 0)  -->
<!DOCTYPE svg PUBLIC "-//W3C//DTD SVG 1.1//EN" "http://www.w3.org/Graphics/SVG/1.1/DTD/svg11.dtd">
<svg version="1.1" xmlns="http://www.w3.org/2000/svg" xmlns:xlink="http://www.w3.org/1999/xlink" x="0px" y="0px"
	 viewBox="-319 268 320 26" enable-background="new -319 268 320 26" xml:space="preserve">
<path fill="#FFFFFF" d="M-204.14,291.56v-21.12h4.23c1.6,0,3.11,0.11,4.37,1.23c1.29,1.12,1.76,2.69,1.76,4.37
	c0,1.93-0.76,3.36-2.44,4.31c2.6,0.53,4.37,2.63,4.37,5.32c0,1.71-0.64,3.25-1.96,4.37c-1.48,1.26-3.05,1.51-4.93,1.51h-5.4V291.56z
	 M-202.79,280.02h2.32c1.43,0,2.58,0.08,3.78-0.78c1.2-0.87,1.57-1.93,1.57-3.39c0-1.37-0.53-2.72-1.74-3.47
	c-1.06-0.67-2.38-0.67-3.61-0.67h-2.32V280.02z M-202.79,290.3h3.22c1.48,0,3.02,0.06,4.31-0.81c1.29-0.87,2.07-2.18,2.07-3.75
	c0-1.54-0.76-3.08-2.18-3.78c-1.29-0.64-3.05-0.67-4.45-0.67h-2.97V290.3z"/>
<path fill="#FFFFFF" d="M-187.67,270.44h1.48l6.22,10.7l6.22-10.7h1.48l-7.03,12.1v9.02h-1.34v-9.02L-187.67,270.44z"/>
<path fill="#FFFFFF" d="M-137.89,274.08h-0.06l-7.36,18.17l-7.34-18.17h-0.06l-3.61,17.47h-1.29l4.54-21.81l7.76,19.21l7.78-19.21
	l4.54,21.81h-1.29L-137.89,274.08z"/>
<path fill="#FFFFFF" d="M-126.52,280.3h0.06c0.5-1.18,1.43-1.96,2.8-1.96c0.5,0,0.92,0.11,1.37,0.31l-0.67,1.12
	c-0.31-0.17-0.56-0.25-0.9-0.25c-2.83,0-2.66,3.53-2.66,5.43v6.61h-1.26v-12.94h1.26V280.3z"/>
<path fill="#FFFFFF" d="M-113.86,290.69c0,0.64-0.5,1.15-1.15,1.15s-1.15-0.5-1.15-1.15s0.5-1.15,1.15-1.15
	S-113.86,290.04-113.86,290.69z"/>
</svg>
