<?xml version="1.0" encoding="utf-8"?>
<!-- Generator: Adobe Illustrator 19.1.0, SVG Export Plug-In . SVG Version: 6.00 Build 0)  -->
<!DOCTYPE svg PUBLIC "-//W3C//DTD SVG 1.1//EN" "http://www.w3.org/Graphics/SVG/1.1/DTD/svg11.dtd">
<svg version="1.1" xmlns="http://www.w3.org/2000/svg" xmlns:xlink="http://www.w3.org/1999/xlink" x="0px" y="0px"
	 viewBox="-319 268 320 26" enable-background="new -319 268 320 26" xml:space="preserve">
<path fill="#FFFFFF" d="M-316.05,291.74v-21.11h4.23c1.6,0,3.11,0.11,4.37,1.23c1.29,1.12,1.76,2.69,1.76,4.37
	c0,1.93-0.76,3.36-2.44,4.31c2.6,0.53,4.37,2.63,4.37,5.32c0,1.71-0.64,3.25-1.96,4.37c-1.48,1.26-3.05,1.51-4.93,1.51
	L-316.05,291.74L-316.05,291.74z M-314.71,280.2h2.32c1.43,0,2.58,0.08,3.78-0.78c1.2-0.87,1.57-1.93,1.57-3.39
	c0-1.37-0.53-2.72-1.74-3.47c-1.05-0.67-2.37-0.67-3.6-0.67h-2.33L-314.71,280.2L-314.71,280.2z M-314.71,290.48h3.22
	c1.48,0,3.02,0.06,4.31-0.81s2.07-2.18,2.07-3.75c0-1.54-0.76-3.08-2.18-3.78c-1.29-0.64-3.05-0.67-4.45-0.67h-2.97V290.48z"/>
<path fill="#FFFFFF" d="M-299.59,270.63h1.48l6.22,10.7l6.22-10.7h1.48l-7.03,12.1v9.02h-1.34v-9.02L-299.59,270.63z"/>
<path fill="#FFFFFF" d="M-262.79,291.74h-1.34v-19.85h-5.47v-1.26h12.26v1.26h-5.46L-262.79,291.74L-262.79,291.74z"/>
<path fill="#FFFFFF" d="M-241.65,291.74h-1.54l-6.89-10h-0.67v10h-1.35v-21.11h2.63c1.71,0,3.39,0.03,4.82,1.06
	c1.51,1.06,2.13,2.74,2.13,4.54c0,3.67-2.55,5.57-6.05,5.52L-241.65,291.74z M-249.05,280.48c1.32,0,2.63-0.06,3.7-0.98
	c1.01-0.81,1.48-2.07,1.48-3.33c0-1.57-0.73-3.14-2.24-3.81c-1.12-0.53-2.55-0.48-3.78-0.48h-0.87v8.6
	C-250.76,280.48-249.05,280.48-249.05,280.48z"/>
<path fill="#FFFFFF" d="M-215.56,281.18c0,5.94-5.01,10.84-10.95,10.84s-10.95-4.9-10.95-10.84s4.98-10.84,10.95-10.84
	C-220.57,270.35-215.56,275.25-215.56,281.18z M-236.11,281.18c0,5.21,4.34,9.58,9.6,9.58c5.24,0,9.6-4.4,9.6-9.58
	c0-5.21-4.37-9.58-9.6-9.58C-231.77,271.61-236.11,275.97-236.11,281.18z"/>
<path fill="#FFFFFF" d="M-197.25,270.63h1.34v13.16c0,2.16,0,4-1.43,5.77c-1.43,1.62-3.61,2.46-5.74,2.46s-4.31-0.84-5.74-2.46
	c-1.43-1.76-1.43-3.61-1.43-5.77v-13.16h1.34v12.77c0,1.9,0,3.92,1.09,5.32c1.04,1.34,3.11,2.04,4.73,2.04s3.7-0.7,4.73-2.04
	c1.09-1.4,1.09-3.42,1.09-5.32v-12.77H-197.25z"/>
<path fill="#FFFFFF" d="M-188.76,291.74v-21.11h4.23c1.6,0,3.11,0.11,4.37,1.23c1.29,1.12,1.76,2.69,1.76,4.37
	c0,1.93-0.76,3.36-2.44,4.31c2.6,0.53,4.37,2.63,4.37,5.32c0,1.71-0.64,3.25-1.96,4.37c-1.48,1.26-3.05,1.51-4.93,1.51
	L-188.76,291.74L-188.76,291.74z M-187.42,280.2h2.32c1.43,0,2.58,0.08,3.78-0.78c1.2-0.87,1.57-1.93,1.57-3.39
	c0-1.37-0.53-2.72-1.74-3.47c-1.06-0.67-2.38-0.67-3.61-0.67h-2.32V280.2z M-187.42,290.48h3.22c1.48,0,3.02,0.06,4.31-0.81
	s2.07-2.18,2.07-3.75c0-1.54-0.76-3.08-2.18-3.78c-1.29-0.64-3.05-0.67-4.45-0.67h-2.97L-187.42,290.48L-187.42,290.48z"/>
<path fill="#FFFFFF" d="M-169.92,290.48h5.38v1.26h-6.72v-21.11h1.34V290.48z"/>
<path fill="#FFFFFF" d="M-157.96,271.89v7.67h8.51v1.26h-8.51v9.66h8.74v1.26h-10.08v-21.11h10.08v1.26L-157.96,271.89
	L-157.96,271.89z"/>
<path fill="#FFFFFF" d="M-128.76,284.79l-2.83,6.94h-1.37l8.85-21.81l8.82,21.81h-1.37l-2.83-6.94H-128.76z M-124.11,273.34
	l-4.14,10.19h8.25L-124.11,273.34z"/>
<path fill="#FFFFFF" d="M-91.02,292.44l-17.72-18.85v18.14h-1.34v-21.38l17.72,18.7v-18.42h1.34V292.44z"/>
<path fill="#FFFFFF" d="M-84.24,270.63h3.81c3.08,0,5.52,0.5,7.84,2.66c2.21,2.07,3.36,4.9,3.36,7.92c0,2.91-1.12,5.68-3.25,7.73
	c-2.32,2.24-4.82,2.8-7.95,2.8h-3.81C-84.24,291.74-84.24,270.63-84.24,270.63z M-80.46,290.48c2.77,0,5.07-0.56,7.08-2.55
	c1.79-1.79,2.8-4.2,2.8-6.72c0-2.69-1.06-5.21-3.05-7.03c-2.02-1.82-4.2-2.3-6.83-2.3h-2.44v18.59L-80.46,290.48L-80.46,290.48z"/>
<path fill="#FFFFFF" d="M-53.3,291.74h-1.54l-6.89-10h-0.67v10h-1.34v-21.11h2.63c1.71,0,3.39,0.03,4.82,1.06
	c1.51,1.06,2.13,2.74,2.13,4.54c0,3.67-2.55,5.57-6.05,5.52L-53.3,291.74z M-60.69,280.48c1.32,0,2.63-0.06,3.7-0.98
	c1.01-0.81,1.48-2.07,1.48-3.33c0-1.57-0.73-3.14-2.24-3.81c-1.12-0.53-2.55-0.48-3.78-0.48h-0.87v8.6
	C-62.4,280.48-60.69,280.48-60.69,280.48z"/>
<path fill="#FFFFFF" d="M-45.94,271.89v7.67h8.51v1.26h-8.51v9.66h8.74v1.26h-10.08v-21.11h10.08v1.26L-45.94,271.89L-45.94,271.89z
	"/>
<path fill="#FFFFFF" d="M-24.94,288.77l7.9-19.21l7.9,19.21l5.85-18.14h1.34l-7.11,21.81l-8.06-19.52l-8.04,19.52l-7.06-21.81h1.34
	L-24.94,288.77z"/>
</svg>
