<?xml version="1.0" encoding="utf-8"?>
<!-- Generator: Adobe Illustrator 19.1.0, SVG Export Plug-In . SVG Version: 6.00 Build 0)  -->
<!DOCTYPE svg PUBLIC "-//W3C//DTD SVG 1.1//EN" "http://www.w3.org/Graphics/SVG/1.1/DTD/svg11.dtd">
<svg version="1.1" xmlns="http://www.w3.org/2000/svg" xmlns:xlink="http://www.w3.org/1999/xlink" x="0px" y="0px"
	 viewBox="-319 268 320 26" enable-background="new -319 268 320 26" xml:space="preserve">
<path fill="#FFFFFF" d="M-299.25,291.56v-21.12h4.23c1.6,0,3.11,0.11,4.37,1.23c1.29,1.12,1.76,2.69,1.76,4.37
	c0,1.93-0.76,3.36-2.44,4.31c2.6,0.53,4.37,2.63,4.37,5.32c0,1.71-0.64,3.25-1.96,4.37c-1.48,1.26-3.05,1.51-4.93,1.51h-5.4V291.56z
	 M-297.91,280.02h2.32c1.43,0,2.58,0.08,3.78-0.78c1.2-0.87,1.57-1.93,1.57-3.39c0-1.37-0.53-2.72-1.74-3.47
	c-1.05-0.68-2.37-0.68-3.6-0.68h-2.32v8.32H-297.91z M-297.91,290.3h3.22c1.48,0,3.02,0.06,4.31-0.81s2.07-2.18,2.07-3.75
	c0-1.54-0.76-3.08-2.18-3.78c-1.29-0.64-3.05-0.67-4.45-0.67h-2.97C-297.91,281.29-297.91,290.3-297.91,290.3z"/>
<path fill="#FFFFFF" d="M-282.79,270.44h1.48l6.22,10.7l6.22-10.7h1.48l-7.03,12.1v9.02h-1.34v-9.02L-282.79,270.44z"/>
<path fill="#FFFFFF" d="M-250.7,270.44h3.81c3.08,0,5.52,0.5,7.84,2.66c2.21,2.07,3.36,4.9,3.36,7.92c0,2.91-1.12,5.68-3.25,7.73
	c-2.32,2.24-4.82,2.8-7.95,2.8h-3.81V270.44z M-246.92,290.3c2.77,0,5.07-0.56,7.08-2.55c1.79-1.79,2.8-4.2,2.8-6.72
	c0-2.69-1.06-5.21-3.05-7.03c-2.02-1.82-4.2-2.3-6.83-2.3h-2.44v18.6H-246.92z"/>
<path fill="#FFFFFF" d="M-228.13,284.61l-2.83,6.94h-1.37l8.85-21.81l8.82,21.81h-1.37l-2.83-6.94H-228.13z M-223.48,273.16
	l-4.14,10.19h8.26L-223.48,273.16z"/>
<path fill="#FFFFFF" d="M-206.99,291.56h-1.34v-21.12h1.34V291.56z"/>
<path fill="#FFFFFF" d="M-194.39,291.56h-1.34V271.7h-5.46v-1.26h12.26v1.26h-5.46C-194.39,271.7-194.39,291.56-194.39,291.56z"/>
<path fill="#FFFFFF" d="M-163.06,281c0,5.94-5.01,10.84-10.95,10.84s-10.95-4.9-10.95-10.84s4.98-10.84,10.95-10.84
	C-168.07,270.16-163.06,275.06-163.06,281z M-183.61,281c0,5.21,4.34,9.58,9.6,9.58c5.24,0,9.6-4.4,9.6-9.58
	c0-5.21-4.37-9.58-9.6-9.58C-179.27,271.42-183.61,275.79-183.61,281z"/>
<path fill="#FFFFFF" d="M-127.81,274.08h-0.06l-7.36,18.17l-7.34-18.17h-0.06l-3.61,17.47h-1.29l4.54-21.81l7.76,19.21l7.78-19.21
	l4.54,21.81h-1.29L-127.81,274.08z"/>
<path fill="#FFFFFF" d="M-113.28,284.61l-2.83,6.94h-1.37l8.85-21.81l8.82,21.81h-1.37l-2.83-6.94H-113.28z M-108.63,273.16
	l-4.14,10.19h8.26L-108.63,273.16z"/>
<path fill="#FFFFFF" d="M-74.97,292.26l-17.73-18.85v18.14h-1.34v-21.39l17.72,18.7v-18.42h1.34L-74.97,292.26L-74.97,292.26z"/>
<path fill="#FFFFFF" d="M-65,284.61l-2.83,6.94h-1.37l8.85-21.81l8.82,21.81h-1.37l-2.83-6.94H-65z M-60.36,273.16l-4.14,10.19h8.26
	L-60.36,273.16z"/>
<path fill="#FFFFFF" d="M-46.33,291.56v-21.12h4.23c1.6,0,3.11,0.11,4.37,1.23c1.29,1.12,1.76,2.69,1.76,4.37
	c0,1.93-0.76,3.36-2.44,4.31c2.6,0.53,4.37,2.63,4.37,5.32c0,1.71-0.64,3.25-1.96,4.37c-1.48,1.26-3.05,1.51-4.93,1.51h-5.4V291.56z
	 M-44.99,280.02h2.32c1.43,0,2.58,0.08,3.78-0.78c1.2-0.87,1.57-1.93,1.57-3.39c0-1.37-0.53-2.72-1.74-3.47
	c-1.06-0.67-2.38-0.67-3.61-0.67h-2.32L-44.99,280.02L-44.99,280.02z M-44.99,290.3h3.22c1.48,0,3.02,0.06,4.31-0.81
	s2.07-2.18,2.07-3.75c0-1.54-0.76-3.08-2.18-3.78c-1.29-0.64-3.05-0.67-4.45-0.67h-2.97V290.3z"/>
<path fill="#FFFFFF" d="M-27.49,271.7v7.67h8.51v1.26h-8.51v9.66h8.74v1.26h-10.08v-21.11h10.08v1.26H-27.49z"/>
</svg>
