<?xml version="1.0" encoding="utf-8"?>
<!-- Generator: Adobe Illustrator 19.1.0, SVG Export Plug-In . SVG Version: 6.00 Build 0)  -->
<!DOCTYPE svg PUBLIC "-//W3C//DTD SVG 1.1//EN" "http://www.w3.org/Graphics/SVG/1.1/DTD/svg11.dtd">
<svg version="1.1" xmlns="http://www.w3.org/2000/svg" xmlns:xlink="http://www.w3.org/1999/xlink" x="0px" y="0px"
	 viewBox="-319 268 320 26" enable-background="new -319 268 320 26" xml:space="preserve">
<path fill="#FFFFFF" d="M-310.8,291.77v-21.12h4.23c1.6,0,3.11,0.11,4.37,1.23c1.29,1.12,1.76,2.69,1.76,4.37
	c0,1.93-0.76,3.36-2.44,4.31c2.6,0.53,4.37,2.63,4.37,5.32c0,1.71-0.64,3.25-1.96,4.37c-1.48,1.26-3.05,1.51-4.93,1.51
	L-310.8,291.77L-310.8,291.77z M-309.46,280.23h2.32c1.43,0,2.58,0.08,3.78-0.78c1.2-0.87,1.57-1.93,1.57-3.39
	c0-1.37-0.53-2.72-1.74-3.47c-1.06-0.67-2.38-0.67-3.61-0.67h-2.32V280.23z M-309.46,290.51h3.22c1.48,0,3.02,0.06,4.31-0.81
	c1.29-0.87,2.07-2.18,2.07-3.75c0-1.54-0.76-3.08-2.18-3.78c-1.29-0.64-3.05-0.67-4.45-0.67h-2.97V290.51z"/>
<path fill="#FFFFFF" d="M-294.34,270.65h1.48l6.22,10.7l6.22-10.7h1.48l-7.03,12.1v9.02h-1.34v-9.02L-294.34,270.65z"/>
<path fill="#FFFFFF" d="M-245.48,274.97c-1.62-1.99-4.48-3.33-7.08-3.33c-5.26,0-9.6,4.54-9.6,9.72c0,2.46,1.06,4.79,2.83,6.52
	c1.76,1.68,4.28,2.91,6.78,2.91c2.44,0,5.52-1.32,7.08-3.22v1.85c-1.99,1.65-4.42,2.63-7.03,2.63c-5.88,0-11-4.9-11-10.81
	c0-5.99,5.04-10.86,11.03-10.86c2.55,0,5.12,1.01,7,2.74v1.85H-245.48z"/>
<path fill="#FFFFFF" d="M-224.59,279.61v-8.96h1.34v21.11h-1.34v-10.89h-12.82v10.89h-1.34v-21.11h1.34v8.96
	C-237.41,279.61-224.59,279.61-224.59,279.61z"/>
<path fill="#FFFFFF" d="M-214.57,291.77h-1.34v-21.12h1.34V291.77z"/>
<path fill="#FFFFFF" d="M-193.06,279.61v-8.96h1.34v21.11h-1.34v-10.89h-12.82v10.89h-1.34v-21.11h1.34v8.96
	C-205.88,279.61-193.06,279.61-193.06,279.61z"/>
<path fill="#FFFFFF" d="M-182.31,284.82l-2.83,6.94h-1.37l8.85-21.81l8.82,21.81h-1.37l-2.83-6.94H-182.31z M-177.66,273.37
	l-4.14,10.19h8.26L-177.66,273.37z"/>
<path fill="#FFFFFF" d="M-153.19,291.77h-1.54l-6.89-10h-0.67v10h-1.34v-21.12h2.63c1.71,0,3.39,0.03,4.82,1.06
	c1.51,1.06,2.13,2.74,2.13,4.54c0,3.67-2.55,5.57-6.05,5.52L-153.19,291.77z M-160.58,280.51c1.32,0,2.63-0.06,3.7-0.98
	c1.01-0.81,1.48-2.07,1.48-3.33c0-1.57-0.73-3.14-2.24-3.81c-1.12-0.53-2.55-0.48-3.78-0.48h-0.87v8.6
	C-162.29,280.51-160.58,280.51-160.58,280.51z"/>
<path fill="#FFFFFF" d="M-134.37,270.65h1.34v13.16c0,2.16,0,4-1.43,5.77c-1.43,1.62-3.61,2.46-5.74,2.46s-4.31-0.84-5.74-2.46
	c-1.43-1.76-1.43-3.61-1.43-5.77v-13.16h1.34v12.77c0,1.9,0,3.92,1.09,5.32c1.04,1.34,3.11,2.04,4.73,2.04s3.7-0.7,4.73-2.04
	c1.09-1.4,1.09-3.42,1.09-5.32v-12.77H-134.37z"/>
<path fill="#FFFFFF" d="M-104.64,274.13c-0.95-1.51-2.3-2.49-4.28-2.49c-2.27,0-3.98,1.82-3.98,4.03c0,2.21,2.1,3.14,3.81,3.95
	l4.03,2.1c1.6,1.01,2.41,2.3,2.41,4.2c0,3.5-3.19,6.13-6.61,6.13c-2.94,0-5.24-1.82-6.22-4.54l1.18-0.53
	c0.9,2.24,2.55,3.81,5.1,3.81c2.77,0,5.21-2.18,5.21-4.98c0-2.38-2.44-3.39-4.26-4.28l-3.81-2.02c-1.4-0.87-2.18-2.1-2.18-3.78
	c0-3.14,2.24-5.35,5.4-5.35c2.13,0,4.14,1.15,5.15,2.97L-104.64,274.13z"/>
<path fill="#FFFFFF" d="M-82.21,279.61v-8.96h1.34v21.11h-1.34v-10.89h-12.82v10.89h-1.34v-21.11h1.34v8.96
	C-95.03,279.61-82.21,279.61-82.21,279.61z"/>
<path fill="#FFFFFF" d="M-72.19,291.77h-1.34v-21.12h1.34V291.77z"/>
<path fill="#FFFFFF" d="M-44.22,281.21c0,5.94-5.01,10.84-10.95,10.84s-10.95-4.9-10.95-10.84s4.98-10.84,10.95-10.84
	C-49.23,270.37-44.22,275.27-44.22,281.21z M-64.77,281.21c0,5.21,4.34,9.58,9.6,9.58c5.24,0,9.6-4.4,9.6-9.58
	c0-5.21-4.37-9.58-9.6-9.58C-60.43,271.63-64.77,276-64.77,281.21z"/>
<path fill="#FFFFFF" d="M-33.44,291.77h-1.34v-19.86h-5.46v-1.26h12.26v1.26h-5.46L-33.44,291.77L-33.44,291.77z"/>
<path fill="#FFFFFF" d="M-20.67,284.82l-2.83,6.94h-1.37l8.85-21.81l8.82,21.81h-1.37l-2.83-6.94H-20.67z M-16.02,273.37
	l-4.14,10.19h8.26L-16.02,273.37z"/>
</svg>
