<?xml version="1.0" encoding="utf-8"?>
<!-- Generator: Adobe Illustrator 19.1.0, SVG Export Plug-In . SVG Version: 6.00 Build 0)  -->
<!DOCTYPE svg PUBLIC "-//W3C//DTD SVG 1.1//EN" "http://www.w3.org/Graphics/SVG/1.1/DTD/svg11.dtd">
<svg version="1.1" xmlns="http://www.w3.org/2000/svg" xmlns:xlink="http://www.w3.org/1999/xlink" x="0px" y="0px"
	 viewBox="21 56 80 44" enable-background="new 21 56 80 44" xml:space="preserve">
<path fill="none" d="M31,74c-2.2,0-4,1.8-4,4s1.8,4,4,4s4-1.8,4-4S33.2,74,31,74z"/>
<polygon fill="none" points="41,60 41,78 41,96 97,96 97,78 97,60 "/>
<path fill="#FFFFFF" d="M21,56v22v22h80V78V56H21z M31,82c-2.2,0-4-1.8-4-4s1.8-4,4-4s4,1.8,4,4S33.2,82,31,82z M97,96H41V78V60h56
	v18V96z"/>
</svg>
