<?xml version="1.0" encoding="utf-8"?>
<!-- Generator: Adobe Illustrator 19.1.0, SVG Export Plug-In . SVG Version: 6.00 Build 0)  -->
<!DOCTYPE svg PUBLIC "-//W3C//DTD SVG 1.1//EN" "http://www.w3.org/Graphics/SVG/1.1/DTD/svg11.dtd">
<svg version="1.1" xmlns="http://www.w3.org/2000/svg" xmlns:xlink="http://www.w3.org/1999/xlink" x="0px" y="0px"
	 viewBox="0 0 22 22" enable-background="new 0 0 22 22" xml:space="preserve">
<path d="M20.99,4.8c-0.73,0.32-1.53,0.55-2.35,0.65c0.84-0.51,1.49-1.31,1.8-2.27c-0.79,0.48-1.67,0.82-2.6,1
	c-0.75-0.8-1.81-1.29-2.99-1.29c-2.26,0-4.1,1.83-4.1,4.1c0,0.32,0.04,0.63,0.11,0.93c-3.4-0.16-6.42-1.8-8.45-4.28
	C2.05,4.24,1.85,4.94,1.85,5.69c0,1.42,0.72,2.68,1.82,3.42C3,9.08,2.37,8.9,1.82,8.59v0.04c0,1.99,1.41,3.65,3.28,4.02
	c-0.34,0.1-0.71,0.15-1.08,0.15c-0.26,0-0.52-0.03-0.77-0.08c0.52,1.63,2.04,2.82,3.83,2.85c-1.4,1.1-3.17,1.76-5.09,1.76
	c-0.33,0-0.66-0.02-0.98-0.06c1.81,1.16,3.97,1.84,6.28,1.84c7.53,0,11.66-6.24,11.66-11.66c0-0.18,0-0.35-0.01-0.53
	C19.74,6.35,20.44,5.63,20.99,4.8z"/>
</svg>
