<?xml version="1.0" encoding="utf-8"?>
<!-- Generator: Adobe Illustrator 19.1.0, SVG Export Plug-In . SVG Version: 6.00 Build 0)  -->
<!DOCTYPE svg PUBLIC "-//W3C//DTD SVG 1.1//EN" "http://www.w3.org/Graphics/SVG/1.1/DTD/svg11.dtd">
<svg version="1.1" xmlns="http://www.w3.org/2000/svg" xmlns:xlink="http://www.w3.org/1999/xlink" x="0px" y="0px"
	 viewBox="0 0 22 22" enable-background="new 0 0 22 22" xml:space="preserve">
<path d="M11.47,1C6.01,1,3.26,4.91,3.26,8.18c0,1.98,0.75,3.73,2.35,4.39c0.26,0.11,0.5,0,0.58-0.29c0.05-0.2,0.18-0.71,0.23-0.92
	c0.08-0.29,0.05-0.39-0.17-0.64C5.79,10.17,5.5,9.46,5.5,8.46c0-2.9,2.17-5.5,5.66-5.5c3.09,0,4.78,1.88,4.78,4.4
	c0,3.31-1.47,6.11-3.64,6.11c-1.2,0-2.1-0.99-1.81-2.21c0.35-1.46,1.01-3.03,1.01-4.08c0-0.94-0.5-1.72-1.55-1.72
	c-1.23,0-2.22,1.27-2.22,2.97c0,1.08,0.37,1.82,0.37,1.82s-1.26,5.33-1.48,6.26c-0.44,1.86-0.07,4.14-0.03,4.37
	c0.02,0.14,0.19,0.17,0.27,0.07c0.11-0.15,1.58-1.95,2.07-3.76c0.14-0.51,0.81-3.16,0.81-3.16c0.4,0.76,1.57,1.43,2.81,1.43
	c3.69,0,6.2-3.37,6.2-7.87C18.74,4.17,15.86,1,11.47,1z"/>
</svg>
