<?xml version="1.0" encoding="utf-8"?>
<!-- Generator: Adobe Illustrator 19.1.0, SVG Export Plug-In . SVG Version: 6.00 Build 0)  -->
<!DOCTYPE svg PUBLIC "-//W3C//DTD SVG 1.1//EN" "http://www.w3.org/Graphics/SVG/1.1/DTD/svg11.dtd">
<svg version="1.1" id="レイヤー_1" xmlns="http://www.w3.org/2000/svg" xmlns:xlink="http://www.w3.org/1999/xlink" x="0px"
	 y="0px" viewBox="-443 275 72 12" enable-background="new -443 275 72 12" xml:space="preserve">
<g>
	<path fill="#FFFFFF" d="M-425.2,277.34c-0.56-1.04-1.55-1.64-2.73-1.64c-1.57,0-2.96,1.05-2.96,2.69c0,1.51,1.06,2.14,2.3,2.7
		l0.64,0.28c0.98,0.45,1.95,0.87,1.95,2.1c0,1.19-1.04,2.06-2.17,2.06c-1.13,0-1.96-0.88-2.12-1.96l-1.15,0.32
		c0.34,1.64,1.6,2.73,3.29,2.73c1.84,0,3.32-1.41,3.32-3.26c0-1.68-1.16-2.37-2.54-2.97l-0.7-0.31c-0.71-0.32-1.65-0.74-1.65-1.65
		c0-0.97,0.81-1.64,1.75-1.64c0.9,0,1.4,0.42,1.82,1.15L-425.2,277.34z"/>
	<path fill="#FFFFFF" d="M-417.5,276.97h2.58v-1.09h-6.3v1.09h2.55v9.47h1.18V276.97z"/>
	<path fill="#FFFFFF" d="M-404.83,283.44l1.25,3h1.3l-4.75-11.07l-4.87,11.07h1.29l1.27-3H-404.83z M-405.29,282.35h-3.57l1.81-4.23
		L-405.29,282.35z"/>
	<path fill="#FFFFFF" d="M-397.16,276.97h0.35c1.41,0,2.69,0.17,2.69,1.91c0,1.64-1.34,1.89-2.68,1.89h-0.36V276.97z
		 M-397.16,281.81h0.29l3.19,4.64h1.44l-3.36-4.73c1.62-0.14,2.65-1.29,2.65-2.91c0-2.38-1.86-2.91-3.87-2.91h-1.53v10.56h1.18
		V281.81z"/>
	<path fill="#FFFFFF" d="M-385.15,276.97h2.58v-1.09h-6.3v1.09h2.55v9.47h1.18V276.97z"/>
</g>
</svg>
