<?xml version="1.0" encoding="utf-8"?>
<!-- Generator: Adobe Illustrator 19.1.0, SVG Export Plug-In . SVG Version: 6.00 Build 0)  -->
<!DOCTYPE svg PUBLIC "-//W3C//DTD SVG 1.1//EN" "http://www.w3.org/Graphics/SVG/1.1/DTD/svg11.dtd">
<svg version="1.1" xmlns="http://www.w3.org/2000/svg" xmlns:xlink="http://www.w3.org/1999/xlink" x="0px" y="0px"
	 viewBox="-378 275 202 12" enable-background="new -378 275 202 12" xml:space="preserve">
<path fill="#FFFFFF" d="M-302.26,286.27h5.48v-1.09h-4.3v-4.15h4.17v-1.09h-4.17v-3.14h4.3v-1.09h-5.48V286.27z"/>
<path fill="#FFFFFF" d="M-291.91,286.27h1.18v-8.14l8.24,8.61v-11.04h-1.18v8.18l-8.24-8.63V286.27z"/>
<path fill="#FFFFFF" d="M-274.7,276.8h2.58v-1.09h-6.3v1.09h2.55v9.47h1.18V276.8z"/>
<path fill="#FFFFFF" d="M-268.13,286.27h5.48v-1.09h-4.3v-4.15h4.17v-1.09h-4.17v-3.14h4.3v-1.09h-5.48V286.27z"/>
<path fill="#FFFFFF" d="M-256.67,276.8h0.35c1.41,0,2.69,0.17,2.69,1.91c0,1.64-1.34,1.89-2.68,1.89h-0.36V276.8z M-256.67,281.63
	h0.29l3.19,4.64h1.44l-3.36-4.73c1.62-0.14,2.65-1.29,2.65-2.91c0-2.38-1.86-2.91-3.87-2.91h-1.53v10.56h1.18V281.63z"/>
</svg>
