<?xml version="1.0" encoding="utf-8"?>
<!-- Generator: Adobe Illustrator 19.1.0, SVG Export Plug-In . SVG Version: 6.00 Build 0)  -->
<!DOCTYPE svg PUBLIC "-//W3C//DTD SVG 1.1//EN" "http://www.w3.org/Graphics/SVG/1.1/DTD/svg11.dtd">
<svg version="1.1" xmlns="http://www.w3.org/2000/svg" xmlns:xlink="http://www.w3.org/1999/xlink" x="0px" y="0px"
	 viewBox="-377 274 204 14" enable-background="new -377 274 204 14" xml:space="preserve">
<path d="M-320.78,276.76v-1.29h-5.47v11.31h1.41v-5.55h3.93v-1.29h-3.93v-3.18H-320.78z"/>
<path d="M-314.87,275.47h-1.41v11.31h4.84v-1.29h-3.43V275.47z"/>
<path d="M-302.52,275.23c-3.24,0-5.92,2.65-5.92,5.89c0,3.36,2.65,5.89,5.92,5.89s5.92-2.53,5.92-5.89
	C-296.6,277.88-299.28,275.23-302.52,275.23z M-302.52,285.69c-2.44,0-4.51-1.99-4.51-4.57c0-2.49,1.86-4.57,4.51-4.57
	c2.65,0,4.51,2.08,4.51,4.57C-298.01,283.7-300.08,285.69-302.52,285.69z"/>
<path d="M-287.25,275.23c-3.24,0-5.92,2.65-5.92,5.89c0,3.36,2.65,5.89,5.92,5.89c3.27,0,5.92-2.53,5.92-5.89
	C-281.33,277.88-284.02,275.23-287.25,275.23z M-287.25,285.69c-2.44,0-4.51-1.99-4.51-4.57c0-2.49,1.86-4.57,4.51-4.57
	c2.65,0,4.51,2.08,4.51,4.57C-282.74,283.7-284.81,285.69-287.25,285.69z"/>
<path d="M-273.65,281.85c1.63-0.2,2.71-1.54,2.71-3.16c0-1.08-0.54-2.14-1.48-2.7c-0.9-0.51-1.98-0.53-2.98-0.53h-1.71v11.31h1.41
	v-4.78h0.59l3.33,4.78h1.71L-273.65,281.85z M-275.7,276.73h0.38c1.39,0,3.07,0.26,3.07,2.02c0,1.8-1.56,2.07-3,2.07h-0.45V276.73z"
	/>
<path d="M-253.63,287.01l3.39-7.71h0.03l1.32,7.47h1.46l-2.31-11.79l-3.88,8.91l-3.88-8.91l-2.31,11.79h1.45l1.32-7.47h0.03
	L-253.63,287.01z"/>
<path d="M-236.53,283.94l1.29,2.83h1.51l-5.4-11.79l-5.4,11.79h1.51l1.29-2.83H-236.53z M-237.11,282.65h-4.02l2.01-4.57
	L-237.11,282.65z"/>
<path d="M-228.52,282.03h0.81c2.14,0,3.96-0.91,3.96-3.3c0-2.07-1.08-3.27-4.56-3.27h-1.62v11.31h1.41V282.03z M-228.52,276.73h0.37
	c1.39,0,3.07,0.21,3.07,1.98c0,1.8-1.56,2.07-3,2.07h-0.45V276.73z"/>
</svg>
