<?xml version="1.0" encoding="utf-8"?>
<!-- Generator: Adobe Illustrator 19.1.0, SVG Export Plug-In . SVG Version: 6.00 Build 0)  -->
<!DOCTYPE svg PUBLIC "-//W3C//DTD SVG 1.1//EN" "http://www.w3.org/Graphics/SVG/1.1/DTD/svg11.dtd">
<svg version="1.1" xmlns="http://www.w3.org/2000/svg" xmlns:xlink="http://www.w3.org/1999/xlink" x="0px" y="0px"
	 viewBox="0 0 420 22" enable-background="new 0 0 420 22" xml:space="preserve">
<path fill="#FFFFFF" d="M0.7,2h3.3c2.6,0,4.7,0.4,6.7,2.3c1.9,1.8,2.9,4.2,2.9,6.8c0,2.5-1,4.9-2.8,6.6c-2,1.9-4.1,2.4-6.8,2.4H0.7
	V2z M3.9,19c2.4,0,4.3-0.5,6.1-2.2c1.5-1.5,2.4-3.6,2.4-5.8c0-2.3-0.9-4.5-2.6-6C8,3.4,6.2,3,3.9,3H1.8V19H3.9z"/>
<path fill="#FFFFFF" d="M37.4,11c0,5.1-4.3,9.3-9.4,9.3c-5.1,0-9.4-4.2-9.4-9.3s4.3-9.3,9.4-9.3C33.1,1.7,37.4,5.9,37.4,11z
	 M19.8,11c0,4.5,3.7,8.2,8.2,8.2c4.5,0,8.2-3.8,8.2-8.2c0-4.5-3.7-8.2-8.2-8.2C23.5,2.8,19.8,6.5,19.8,11z"/>
<path fill="#FFFFFF" d="M48.2,17.4L48.2,17.4L53.6,2h1.2l-6.6,18.7L41.7,2h1.2L48.2,17.4z"/>
<path fill="#FFFFFF" d="M61.8,3v6.6h7.3v1.1h-7.3V19h7.5V20h-8.6V2h8.6V3H61.8z"/>
<path fill="#FFFFFF" d="M84.7,20h-1.3l-5.9-8.6h-0.6V20h-1.2V2H78c1.5,0,2.9,0,4.1,0.9C83.4,3.8,84,5.2,84,6.8
	c0,3.1-2.2,4.8-5.2,4.7L84.7,20z M78.4,10.4c1.1,0,2.3,0,3.2-0.8c0.9-0.7,1.3-1.8,1.3-2.9c0-1.3-0.6-2.7-1.9-3.3
	C79.9,3,78.7,3,77.6,3h-0.7v7.4H78.4z"/>
<path fill="#FFFFFF" d="M112.9,4.9c-0.8-1.3-2-2.1-3.7-2.1c-1.9,0-3.4,1.6-3.4,3.5c0,1.9,1.8,2.7,3.3,3.4l3.5,1.8
	c1.4,0.9,2.1,2,2.1,3.6c0,3-2.7,5.3-5.7,5.3c-2.5,0-4.5-1.6-5.3-3.9l1-0.5c0.8,1.9,2.2,3.3,4.4,3.3c2.4,0,4.5-1.9,4.5-4.3
	c0-2-2.1-2.9-3.6-3.7l-3.3-1.7c-1.2-0.7-1.9-1.8-1.9-3.2c0-2.7,1.9-4.6,4.6-4.6c1.8,0,3.6,1,4.4,2.5L112.9,4.9z"/>
<path fill="#FFFFFF" d="M125.4,20h-1.2V3h-4.7V2h10.5V3h-4.7V20z"/>
<path fill="#FFFFFF" d="M145,20h-1.3l-5.9-8.6h-0.6V20H136V2h2.3c1.5,0,2.9,0,4.1,0.9c1.3,0.9,1.8,2.4,1.8,3.9
	c0,3.1-2.2,4.8-5.2,4.7L145,20z M138.6,10.4c1.1,0,2.3,0,3.2-0.8c0.9-0.7,1.3-1.8,1.3-2.9c0-1.3-0.6-2.7-1.9-3.3
	C140.2,3,139,3,137.9,3h-0.7v7.4H138.6z"/>
<path fill="#FFFFFF" d="M152.3,3v6.6h7.3v1.1h-7.3V19h7.5V20h-8.6V2h8.6V3H152.3z"/>
<path fill="#FFFFFF" d="M166.8,3v6.6h7.3v1.1h-7.3V19h7.5V20h-8.6V2h8.6V3H166.8z"/>
<path fill="#FFFFFF" d="M186.2,20H185V3h-4.7V2h10.5V3h-4.7V20z"/>
<path fill="#FFFFFF" d="M225.2,5.1L225.2,5.1l-6.4,15.6l-6.3-15.6h0l-3.1,15h-1.1l3.9-18.7l6.6,16.5l6.7-16.5l3.9,18.7h-1.1
	L225.2,5.1z"/>
<path fill="#FFFFFF" d="M238.1,14.1l-2.4,6h-1.2l7.6-18.7l7.6,18.7h-1.2l-2.4-6H238.1z M242.1,4.3l-3.6,8.7h7.1L242.1,4.3z"/>
<path fill="#FFFFFF" d="M264,20h-1.3l-5.9-8.6h-0.6V20h-1.2V2h2.3c1.5,0,2.9,0,4.1,0.9c1.3,0.9,1.8,2.4,1.8,3.9
	c0,3.1-2.2,4.8-5.2,4.7L264,20z M257.7,10.4c1.1,0,2.3,0,3.2-0.8c0.9-0.7,1.3-1.8,1.3-2.9c0-1.3-0.6-2.7-1.9-3.3
	C259.2,3,258,3,257,3h-0.7v7.4H257.7z"/>
<path fill="#FFFFFF" d="M279.9,2h1.5l-8.9,8.7L282,20h-1.5l-8.7-8.6l-0.5,0.5V20h-1.2V2h1.2v8.4L279.9,2z"/>
<path fill="#FFFFFF" d="M288.8,3v6.6h7.3v1.1h-7.3V19h7.5V20h-8.6V2h8.6V3H288.8z"/>
<path fill="#FFFFFF" d="M308.2,20H307V3h-4.7V2h10.5V3h-4.7V20z"/>
<path fill="#FFFFFF" d="M347.5,11.3c0,2.3-0.3,4.3-1.9,6c-1.7,1.9-4.3,2.9-6.9,2.9c-5,0-9.3-4.2-9.3-9.2c0-5.2,4.2-9.4,9.4-9.4
	c3.3,0,6,1.6,7.8,4.2l-0.9,0.7c-1.6-2.4-4.1-3.9-7-3.9c-4.4,0-8.2,3.9-8.2,8.2c0,4.5,3.7,8.2,8.2,8.2c1.9,0,3.8-0.8,5.3-2
	c1.6-1.3,2.1-2.8,2.2-4.8h-6.5v-1.1H347.5z"/>
<path fill="#FFFFFF" d="M355.8,20h-1.2V2h1.2V20z"/>
<path fill="#FFFFFF" d="M380.3,20.6L365.1,4.5V20H364V1.7l15.2,16V2h1.2V20.6z"/>
<path fill="#FFFFFF" d="M399.6,19V20h-12.7l11-17h-10V2h12l-11,17H399.6z"/>
<path fill="#FFFFFF" d="M407.8,14.1l-2.4,6h-1.2l7.6-18.7l7.6,18.7h-1.2l-2.4-6H407.8z M411.8,4.3l-3.6,8.7h7.1L411.8,4.3z"/>
</svg>
