<?xml version="1.0" encoding="utf-8"?>
<!-- Generator: Adobe Illustrator 19.1.0, SVG Export Plug-In . SVG Version: 6.00 Build 0)  -->
<!DOCTYPE svg PUBLIC "-//W3C//DTD SVG 1.1//EN" "http://www.w3.org/Graphics/SVG/1.1/DTD/svg11.dtd">
<svg version="1.1" xmlns="http://www.w3.org/2000/svg" xmlns:xlink="http://www.w3.org/1999/xlink" x="0px" y="0px"
	 viewBox="-144.94 14.13 400 80" enable-background="new -144.94 14.13 400 80" xml:space="preserve">
<g>
	<path fill="#FFFFFF" d="M-69.26,25.62v11.26h11.74V25.62h-5.5v-3.31h10.56v-0.84h-21.7v0.84h10.2v3.31H-69.26z M-63.01,30.76v-4.3
		h4.56v4.3H-63.01z M-68.34,26.46h4.39v4.3h-4.39V26.46z M-63.01,36.02v-4.46h4.56v4.46H-63.01z M-68.34,31.55h4.39v4.46h-4.39
		V31.55z M-71.97,39.83V25.96h-0.91v16.23h0.91V40.7h17.28v1.49h0.94V25.96h-0.94v13.87H-71.97z"/>
	<path fill="#FFFFFF" d="M-39.83,31.26v-3.62h5.69v3.62H-39.83z M-39.83,35.78v-3.7h5.69v3.7H-39.83z M-28.67,41.23v0.96h0.96V26.78
		h-9.82c0.58-1.44,1.08-3,1.44-4.2h10.01v-0.89h-21.7v0.89h10.58c-0.31,1.18-0.79,2.74-1.32,4.2h-7.58v15.41h0.94v-0.96H-28.67z
		 M-33.23,40.36V27.64h4.56v12.72H-33.23z M-39.83,40.36v-3.77h5.69v3.77H-39.83z M-45.16,40.36V27.64h4.44v12.72H-45.16z"/>
	<path fill="#FFFFFF" d="M-18.76,24.3v15.63h16.51V24.3H-18.76z M-17.73,38.97V25.26h14.45v13.71H-17.73z"/>
	<path fill="#FFFFFF" d="M13.74,28.07c0.82,1.51,1.63,3.67,2.02,5.18l0.82-0.31c-0.43-1.61-1.15-3.55-2.02-5.21L13.74,28.07z
		 M21.68,28.26c-0.91,5.5-3.98,10.06-9.22,12.36l0.6,0.79c5.26-2.45,8.5-7.22,9.53-12.94L21.68,28.26z M9.25,29.1
		c0.94,1.46,1.85,3.53,2.28,5.04l0.84-0.34c-0.53-1.58-1.34-3.5-2.3-5.09L9.25,29.1z"/>
	<path fill="#FFFFFF" d="M39.87,25.05c0.74-1.22,1.37-2.42,1.82-3.53l-0.94-0.34c-1.37,3.36-4.73,8.4-8.16,10.92l0.79,0.67
		c2.11-1.63,4.22-4.22,5.9-6.82h9.22c-1.42,6.43-5.52,11.95-12.62,14.76l0.67,0.84c7.18-2.98,11.5-8.66,13.18-16.13l-0.77-0.38
		H39.87z"/>
	<path fill="#FFFFFF" d="M77.15,28.53c-2.18,0.84-4.66,1.78-6.89,2.83c-0.58-1.58-1.46-2.3-2.71-2.3c-1.75,0-3.5,0.82-5.3,2.04
		c0.96-1.15,2.35-3.36,3.48-5.86h8.88v-0.89h-8.5c0.41-1.01,0.77-2.04,1.03-3.07l-0.98-0.19c-0.22,1.03-0.6,2.14-1.08,3.26h-5.74
		v0.89h5.35c-1.46,3.14-3.65,6.36-5.81,8.45l0.74,0.62c0.62-0.67,1.49-1.51,1.99-1.9c2.04-1.61,3.98-2.52,5.81-2.52
		c0.86,0,1.56,0.6,2.02,1.87c-3.43,1.7-6.17,3.74-6.17,6.1c0,2.33,2.54,3.58,7.13,3.58c1.97,0,4.66-0.12,6.26-0.41l-0.12-0.94
		c-1.54,0.29-4.39,0.46-6.17,0.46c-4.22,0-6.12-1.03-6.12-2.74c0-1.87,2.35-3.62,5.45-5.18c0.22,1.03,0.36,2.35,0.34,3.98
		c0,0.31,0,0.6,0,0.91h0.94c0-2.23-0.14-3.98-0.48-5.3c2.26-1.06,4.78-2.02,7.03-2.83L77.15,28.53z"/>
	<path fill="#FFFFFF" d="M100.26,22.02h4.2c-0.17,3.05-0.38,4.34-0.67,4.54c-0.1,0.07-0.22,0.1-0.36,0.1c-0.43,0-1.32,0-1.85-0.05
		l0.07,0.82c0.58,0.02,1.51,0.05,1.94,0.02c0.36,0,0.6-0.07,0.79-0.17c0.55-0.31,0.84-2.11,1.06-6.07h-0.46h-0.48h-9.17v0.82h4.03
		c-0.43,2.23-1.54,4.37-4.34,5.52l0.6,0.67C98.6,26.85,99.75,24.59,100.26,22.02z M86.38,25.7c0.7-0.94,1.3-1.94,1.78-3.02h3.31
		c-0.41,0.98-1.01,2.14-1.58,3.02H86.7H86.38z M90.39,30.04v-3.53h3.14v3.53H90.39z M86.7,30.04v-3.53h2.93v3.53H86.7z M93.54,35.22
		v5.4c0,0.43-0.12,0.67-0.62,0.7c-0.31,0.02-1.42,0-2.16-0.02l0.07,0.86c0.94,0.02,2.14,0.05,2.59-0.02
		c0.79-0.12,0.98-0.6,0.98-1.39V25.7h-0.43h-0.43h-2.71c0.7-1.15,1.39-2.47,1.85-3.5l-0.5-0.26h-0.22h-0.22H88.5
		c0.17-0.43,0.34-0.86,0.46-1.3l-0.84-0.17c-0.74,2.45-2.16,4.7-3.98,6.6l0.74,0.46c0.34-0.36,0.67-0.72,0.98-1.1v7.01
		c0,3.1-0.48,5.9-1.99,8.18c0.41,0.38,0.53,0.48,0.67,0.58c1.34-1.99,1.94-4.37,2.11-6.96H93.54z M90.39,34.41v-3.6h3.14v3.6H90.39z
		 M86.7,34.41c0-0.34,0-0.65,0-0.98v-2.62h2.93v3.6H86.7z M95.17,35.85v0.84h5.02v5.52h0.91v-5.52h4.87v-0.84h-4.87v-3.82h3.98
		v-0.82h-3.98v-2.9h-0.91v2.9h-2.62c0.24-0.77,0.41-1.56,0.53-2.35l-0.82-0.14c-0.29,1.99-0.94,3.94-1.94,5.62
		c0.48,0.29,0.6,0.34,0.72,0.41c0.5-0.86,0.91-1.75,1.25-2.71h2.88v3.82H95.17z"/>
	<path fill="#FFFFFF" d="M125.05,21.38c2.3,3.12,4.8,5.26,7.25,6.74l0.55-0.82c-2.5-1.44-5.14-3.67-7.34-6.79h-0.91
		c-2.09,3.12-4.68,5.45-7.13,6.79l0.53,0.79C120.42,26.68,122.89,24.45,125.05,21.38z M116.82,21.35h-5.35v20.86h0.94V22.22h4.13
		c-0.77,2.04-1.78,4.49-2.93,6.98c2.33,2.18,3.22,3.6,3.22,5.16c0,1.34-0.31,2.33-1.49,2.47c-0.46,0.05-1.54,0.05-2.14-0.02
		l0.1,0.89c0.72,0.07,1.94,0.07,2.5-0.02c1.51-0.24,1.97-1.63,1.97-3.26c0-1.7-0.96-3.19-3.19-5.38c1.15-2.54,2.33-5.16,3.29-7.46
		c-0.36-0.14-0.46-0.19-0.55-0.22h-0.17H116.82z M118.09,31.58v0.86h6.48v8.14c0,0.43-0.14,0.67-0.65,0.7
		c-0.36,0.02-1.58,0.02-2.45-0.02l0.12,0.91c1.01,0.05,2.38,0.05,2.9-0.02c0.77-0.12,1.01-0.6,1.01-1.42v-8.28h6.6v-0.86h-6.6V28
		h4.54v-0.86h-9.96V28h4.49v3.58H118.09z M128.19,34.6c1.54,1.97,2.66,3.84,3.36,5.47l0.89-0.36c-0.74-1.66-1.9-3.5-3.48-5.5
		L128.19,34.6z M120.99,34.31c-0.77,2.04-2.21,3.98-3.62,5.38l0.82,0.5c1.44-1.51,2.86-3.53,3.7-5.66L120.99,34.31z"/>
	<path fill="#FFFFFF" d="M141.75,21.45c0,5.26-0.07,10.51-0.07,12.91c0,4.68,1.82,7.1,6.12,7.1c3.98,0,7.01-1.99,9.02-8.11
		l-0.94-0.43c-1.78,5.74-4.51,7.56-8.06,7.56c-3.55,0-5.16-1.73-5.16-6.17c0-2.45,0-7.58,0.17-12.87H141.75z"/>
	<path fill="#FFFFFF" d="M164.55,24.4l0.07,0.96c3.38-0.12,9.55-0.48,12.46-0.72c-3.74,2.33-6.34,5.62-6.34,9.14
		c0,4.58,4.01,7.18,10.2,7.46l0.12-0.96c-5.83-0.34-9.31-2.54-9.31-6.55c0-3.41,2.62-6.43,5.88-8.45c0.6-0.36,1.22-0.7,1.85-0.77
		c0.82-0.12,2.45-0.29,3.46-0.34l-0.12-0.98c-1.49,0.14-3.48,0.36-5.09,0.48C175.71,23.85,167.79,24.33,164.55,24.4z"/>
	<path fill="#FFFFFF" d="M-89.66,71.62v11.26h11.74V71.62h-5.5v-3.31h10.56v-0.84h-21.7v0.84h10.2v3.31H-89.66z M-83.41,76.76v-4.3
		h4.56v4.3H-83.41z M-88.74,72.46h4.39v4.3h-4.39V72.46z M-83.41,82.02v-4.46h4.56v4.46H-83.41z M-88.74,77.55h4.39v4.46h-4.39
		V77.55z M-92.37,85.83V71.96h-0.91v16.23h0.91V86.7h17.28v1.49h0.94V71.96h-0.94v13.87H-92.37z"/>
	<path fill="#FFFFFF" d="M-60.23,77.26v-3.62h5.69v3.62H-60.23z M-60.23,81.78v-3.7h5.69v3.7H-60.23z M-49.07,87.23v0.96h0.96V72.78
		h-9.82c0.58-1.44,1.08-3,1.44-4.2h10.01v-0.89h-21.7v0.89h10.58c-0.31,1.18-0.79,2.74-1.32,4.2h-7.58v15.41h0.94v-0.96H-49.07z
		 M-53.63,86.36V73.64h4.56v12.72H-53.63z M-60.23,86.36v-3.77h5.69v3.77H-60.23z M-65.56,86.36V73.64h4.44v12.72H-65.56z"/>
	<path fill="#FFFFFF" d="M-22.45,74.53c-2.18,0.84-4.66,1.78-6.89,2.83c-0.58-1.58-1.46-2.3-2.71-2.3c-1.75,0-3.5,0.82-5.3,2.04
		c0.96-1.15,2.35-3.36,3.48-5.86H-25v-0.89h-8.5c0.41-1.01,0.77-2.04,1.03-3.07l-0.98-0.19c-0.22,1.03-0.6,2.14-1.08,3.26h-5.74
		v0.89h5.35c-1.46,3.14-3.65,6.36-5.81,8.45l0.74,0.62c0.62-0.67,1.49-1.51,1.99-1.9c2.04-1.61,3.98-2.52,5.81-2.52
		c0.86,0,1.56,0.6,2.02,1.87c-3.43,1.7-6.17,3.74-6.17,6.1c0,2.33,2.54,3.58,7.13,3.58c1.97,0,4.66-0.12,6.26-0.41l-0.12-0.94
		c-1.54,0.29-4.39,0.46-6.17,0.46c-4.22,0-6.12-1.03-6.12-2.74c0-1.87,2.35-3.62,5.45-5.18c0.22,1.03,0.36,2.35,0.34,3.98
		c0,0.31,0,0.6,0,0.91h0.94c0-2.23-0.14-3.98-0.48-5.3c2.26-1.06,4.78-2.02,7.03-2.83L-22.45,74.53z"/>
	<path fill="#FFFFFF" d="M-3.42,72.8v-2.98h4.54v2.98H-3.42z M-7.48,75.82v7.7H5.41v-7.7h-6.14v-2.18h7.08V72.8H2v-2.98h3.86v-0.84
		H2v-2.52H1.11v2.52h-4.54v-2.52h-0.89v2.52h-3.46v0.84h3.46v2.98h-3.82v0.84h6.48v2.18H-7.48z M-0.73,79.28v-2.66h5.18v2.66H-0.73z
		 M-6.57,76.62h4.92v2.66h-4.92V76.62z M-0.73,82.74v-2.76h5.18v2.76H-0.73z M-6.57,79.98h4.92v2.76h-4.92V79.98z M-11.01,74v-1.3
		h2.66v-0.86h-2.66v-5.38h-0.94v5.38h-3.41v0.86h3.36c-0.72,3.41-2.28,7.61-3.79,9.86l0.58,0.89c1.2-1.97,2.42-5.11,3.26-8.09v12.84
		h0.94V75.22c0.84,1.39,1.68,2.95,2.16,3.96l0.55-0.84C-8.9,77.26-10.02,75.46-11.01,74z M0.61,84.51c1.97,1.34,3.62,2.59,4.97,3.65
		l0.91-0.46c-1.44-1.1-3.1-2.33-5.11-3.7L0.61,84.51z M-3.81,84.08c-1.3,1.44-3.34,2.74-5.3,3.55l0.91,0.53
		c1.9-0.89,4.01-2.26,5.3-3.67L-3.81,84.08z"/>
	<path fill="#FFFFFF" d="M13.88,78.7c0,3.41,0.34,6.41,1.22,8.76l1.01-0.31c-0.96-2.26-1.25-5.23-1.25-8.5
		c0-3.84,0.48-7.99,1.25-11.16l-1.06-0.17c-0.7,3.26-1.18,7.46-1.18,11.35V78.7z M27.11,70.74c-2.5,0-5.23,0.12-7.37,0.31l0.07,0.94
		c1.99-0.24,4.58-0.38,6.91-0.38c1.42,0,2.93,0.05,4.06,0.14l0.05-0.96c-1.06-0.02-2.45-0.05-3.7-0.05H27.11z M31.38,84.7
		c-1.46,0.19-3.05,0.29-4.58,0.29c-3.89,0-6.31-0.46-6.31-2.04c0-0.77,0.34-1.7,1.1-3.17l-0.89-0.22c-0.79,1.51-1.15,2.69-1.15,3.55
		c0,2.23,3.05,2.78,7.25,2.78c1.46,0,3.1-0.1,4.58-0.24V84.7z"/>
	<path fill="#FFFFFF" d="M42.15,67.45c0,5.26-0.07,10.51-0.07,12.91c0,4.68,1.82,7.1,6.12,7.1c3.98,0,7.01-1.99,9.02-8.11
		l-0.94-0.43c-1.78,5.74-4.51,7.56-8.06,7.56s-5.16-1.73-5.16-6.17c0-2.45,0-7.58,0.17-12.87H42.15z"/>
	<path fill="#FFFFFF" d="M64.95,70.4l0.07,0.96c3.38-0.12,9.55-0.48,12.46-0.72c-3.74,2.33-6.34,5.62-6.34,9.14
		c0,4.58,4.01,7.18,10.2,7.46l0.12-0.96c-5.83-0.34-9.31-2.54-9.31-6.55c0-3.41,2.62-6.43,5.88-8.45c0.6-0.36,1.22-0.7,1.85-0.77
		c0.82-0.12,2.45-0.29,3.46-0.34l-0.12-0.98c-1.49,0.14-3.48,0.36-5.09,0.48C76.11,69.85,68.19,70.33,64.95,70.4z"/>
	<path fill="#FFFFFF" d="M105.51,66.99c-2.04,2.38-7.87,7.51-11.14,9.65c-0.41,0.26-0.6,0.6-0.6,0.94c0,0.34,0.19,0.65,0.55,0.89
		c4.66,2.98,9.55,6.58,12.07,9.29l0.84-0.72c-2.57-2.62-7.13-5.95-11.95-9.12c-0.14-0.1-0.24-0.24-0.24-0.38
		c0-0.12,0.07-0.24,0.26-0.36c3.29-2.26,8.74-7.03,11.02-9.53L105.51,66.99z"/>
	<path fill="#FFFFFF" d="M135.3,66.63c0.96,1.01,1.94,2.3,2.66,3.55l0.62-0.46c-0.77-1.25-1.7-2.52-2.74-3.55L135.3,66.63z
		 M132.71,67.98c0.98,1.01,1.97,2.3,2.69,3.53l0.62-0.43c-0.77-1.27-1.7-2.52-2.74-3.55L132.71,67.98z M118.02,70.42v0.94h4.75
		c-0.94,5.47-2.76,11.83-4.97,15.65l0.91,0.46c2.21-3.91,4.06-10.44,5.06-16.11h7.94v-0.94h-7.8c0.19-1.1,0.34-2.16,0.43-3.14
		l-1.01-0.07c-0.1,1.01-0.24,2.09-0.41,3.22H118.02z M136.69,74.62c-0.84-0.05-1.94-0.07-3.1-0.07c-1.94,0.02-4.15,0.1-5.83,0.29
		l0.02,0.91c1.68-0.22,3.79-0.31,5.66-0.31c1.18,0,2.38,0.02,3.24,0.07V74.62z M127.47,81.03c-0.67,1.27-0.96,2.21-0.96,3.12
		c0,1.97,2.54,2.62,7.18,2.62c1.13,0,2.26-0.05,3.31-0.14v-0.96c-1.03,0.14-2.18,0.19-3.34,0.19c-4.27,0-6.22-0.5-6.22-1.87
		c0-0.77,0.29-1.63,0.89-2.71L127.47,81.03z"/>
	<path fill="#FFFFFF" d="M144.68,73.09c0.74,0.02,1.56,0.02,2.38,0.02c2.71,0,5.78-0.1,8.71-0.31c1.01,2.76,2.4,5.28,3.77,6.72
		c-2.47-0.89-5.11-1.44-7.87-1.44c-3.34,0-5.62,1.7-5.62,4.32c0,3.38,3.17,5.14,9.53,5.14c0.94,0,1.99-0.02,3.07-0.12l0.02-0.94
		c-1.13,0.07-2.18,0.12-3.14,0.12c-5.64,0-8.5-1.32-8.5-4.13c0-2.11,1.7-3.53,4.78-3.53c2.86,0,5.64,0.65,8.54,1.82l0.74-0.84
		c-1.73-1.66-3.26-4.32-4.34-7.2c2.5-0.22,4.82-0.48,6.62-0.84l-0.19-0.91c-1.8,0.38-4.2,0.67-6.74,0.86
		c-0.55-1.58-0.94-3.19-1.13-4.7l-1.01,0.12c0.22,1.51,0.62,3.12,1.15,4.66c-2.78,0.22-5.69,0.31-8.21,0.31
		c-0.94,0-1.78-0.02-2.57-0.05V73.09z"/>
	<path fill="#FFFFFF" d="M184.74,70.38c3.19,2.98,4.44,6.82,4.51,11.88l1.06-0.1c-0.14-5.23-1.39-9.12-4.78-12.39L184.74,70.38z
		 M171.46,70.11c-0.12,1.9-0.17,3.77-0.17,5.33c0,6.58,2.81,10.92,5.21,10.92c1.68,0,2.81-2.11,3.74-5.45l-0.86-0.36
		c-0.72,2.76-1.7,4.75-2.93,4.75c-1.85,0-4.18-3.96-4.18-9.91c0-1.51,0.07-3.36,0.22-5.21L171.46,70.11z"/>
	<path fill="#FFFFFF" d="M201.73,85.23c0-1.61-1.32-2.95-2.95-2.95c-1.63,0-2.95,1.34-2.95,2.95c0,1.63,1.32,2.95,2.95,2.95
		c1.63,0,2.95-1.32,2.95-2.93V85.23z M196.45,85.23c0-1.25,1.08-2.3,2.33-2.3c1.27,0,2.3,1.06,2.3,2.3c0,1.27-1.03,2.33-2.3,2.33
		c-1.25,0-2.33-1.08-2.33-2.3V85.23z"/>
</g>
<g display="none">
	<path display="inline" fill="#FFFFFF" d="M-139.72,29.2h2.04c1.42,0,2.93-0.19,4.03-1.15c1.01-0.84,1.51-2.28,1.51-3.58
		c0-1.42-0.53-2.78-1.63-3.72c-1.13-0.96-2.5-1.06-3.91-1.06h-3.19v18.1h1.15V29.2z M-139.72,28.12v-7.34h1.9
		c1.1,0,2.26,0.02,3.17,0.72c0.91,0.67,1.37,1.8,1.37,2.93c0,1.06-0.38,1.99-1.18,2.71c-0.94,0.84-1.99,0.98-3.17,0.98H-139.72z"/>
	<path display="inline" fill="#FFFFFF" d="M-127.37,17.99h-1.08v19.8h1.08V17.99z"/>
	<path display="inline" fill="#FFFFFF" d="M-112.84,32.34c0.02-3.19-1.97-5.88-5.33-5.88c-3.24,0-5.38,2.66-5.38,5.76
		c0,3.14,2.09,5.81,5.38,5.81c2.18,0,3.96-1.08,4.97-3l-0.91-0.53c-0.79,1.49-2.18,2.52-3.91,2.52c-2.57,0-4.51-1.87-4.44-4.68
		H-112.84z M-122.47,31.34c0.19-2.09,2.06-3.86,4.32-3.86c2.28,0,3.96,1.82,4.22,3.86H-122.47z"/>
	<path display="inline" fill="#FFFFFF" d="M-104.73,27.47c2.69,0,4.44,2.02,4.44,4.58c0,2.66-1.54,4.97-4.37,4.97
		c-2.69,0-4.37-2.3-4.37-4.85C-109.03,29.78-107.28,27.47-104.73,27.47z M-99.28,26.7h-1.08v1.92h-0.05
		c-0.94-1.39-2.57-2.16-4.27-2.16c-3.34,0-5.42,2.47-5.42,5.71c0,3.24,2.11,5.86,5.47,5.86c1.63,0,3.41-0.82,4.22-2.23h0.05v1.99
		h1.08V26.7z"/>
	<path display="inline" fill="#FFFFFF" d="M-88.8,28.24c-0.48-1.03-1.7-1.78-2.83-1.78c-1.61,0-3.02,1.13-3.02,2.81
		c0,1.87,1.73,2.52,3.24,3.07c1.1,0.38,2.16,0.82,2.16,2.18c0,1.39-1.1,2.5-2.5,2.5c-1.46,0-2.35-0.94-2.76-2.26l-1.06,0.34
		c0.46,1.8,1.97,2.93,3.82,2.93c1.99,0,3.58-1.42,3.58-3.46c0-4.01-5.4-2.71-5.4-5.38c0-0.96,0.96-1.73,1.9-1.73
		c0.86,0,1.58,0.48,1.94,1.25L-88.8,28.24z"/>
	<path display="inline" fill="#FFFFFF" d="M-74.56,32.34c0.02-3.19-1.97-5.88-5.33-5.88c-3.24,0-5.38,2.66-5.38,5.76
		c0,3.14,2.09,5.81,5.38,5.81c2.18,0,3.96-1.08,4.97-3l-0.91-0.53c-0.79,1.49-2.18,2.52-3.91,2.52c-2.57,0-4.51-1.87-4.44-4.68
		H-74.56z M-84.19,31.34c0.19-2.09,2.06-3.86,4.32-3.86c2.28,0,3.96,1.82,4.22,3.86H-84.19z"/>
	<path display="inline" fill="#FFFFFF" d="M-62.11,17.99v19.8h1.08v-5.47c0-2.26,0.46-4.85,3.24-4.85c2.42,0,2.66,1.63,2.66,3.62
		v6.7h1.08v-6.7c0-2.86-0.79-4.63-3.65-4.63c-1.44,0-2.64,0.74-3.29,1.97h-0.05V17.99H-62.11z"/>
	<path display="inline" fill="#FFFFFF" d="M-44.47,26.46c-3.22,0-5.76,2.62-5.76,5.81c0,3.14,2.57,5.76,5.76,5.76
		c3.26,0,5.83-2.5,5.83-5.78C-38.64,28.96-41.21,26.46-44.47,26.46z M-44.54,27.47c2.74,0,4.82,2.06,4.82,4.8
		c0,2.69-2.11,4.75-4.82,4.75c-2.62,0-4.61-2.23-4.61-4.75C-49.15,29.7-47.18,27.47-44.54,27.47z"/>
	<path display="inline" fill="#FFFFFF" d="M-33.74,17.99h-1.08v19.8h1.08V17.99z"/>
	<path display="inline" fill="#FFFFFF" d="M-24.48,37.03c-2.69,0-4.37-2.3-4.37-4.85c0-2.4,1.75-4.7,4.3-4.7
		c2.69,0,4.44,2.02,4.44,4.58C-20.11,34.72-21.65,37.03-24.48,37.03z M-20.18,37.79h1.08v-19.8h-1.08v10.63h-0.05
		c-0.94-1.39-2.57-2.16-4.27-2.16c-3.34,0-5.42,2.47-5.42,5.71c0,3.24,2.11,5.86,5.47,5.86c1.63,0,3.41-0.82,4.22-2.23h0.05V37.79z"
		/>
	<path display="inline" fill="#FFFFFF" d="M-2.25,37.99l-2.66,6.29h1.1L3.63,26.7h-1.1l-4.25,10.03L-6.45,26.7h-1.13L-2.25,37.99z"
		/>
	<path display="inline" fill="#FFFFFF" d="M11.35,26.46c-3.22,0-5.76,2.62-5.76,5.81c0,3.14,2.57,5.76,5.76,5.76
		c3.26,0,5.83-2.5,5.83-5.78C17.19,28.96,14.62,26.46,11.35,26.46z M11.28,27.47c2.74,0,4.82,2.06,4.82,4.8
		c0,2.69-2.11,4.75-4.82,4.75c-2.62,0-4.61-2.23-4.61-4.75C6.67,29.7,8.64,27.47,11.28,27.47z"/>
	<path display="inline" fill="#FFFFFF" d="M27.72,26.7v6.26c0,2.14-0.24,4.06-2.9,4.06c-2.66,0-2.9-1.92-2.9-4.06V26.7h-1.08v6.65
		c0,1.13-0.02,2.26,0.67,3.19c0.77,1.01,2.06,1.49,3.31,1.49c1.25,0,2.54-0.48,3.31-1.49c0.7-0.94,0.67-2.06,0.67-3.19V26.7H27.72z"
		/>
	<path display="inline" fill="#FFFFFF" d="M34.61,26.7h-1.08v11.09h1.08v-5.66c0-1.63-0.14-4.66,2.28-4.66
		c0.29,0,0.5,0.07,0.77,0.22l0.58-0.96c-0.38-0.17-0.74-0.26-1.18-0.26c-1.18,0-1.97,0.67-2.4,1.68h-0.05V26.7z"/>
	<path display="inline" fill="#FFFFFF" d="M55.42,27.47c2.71,0,4.37,2.35,4.37,4.9c0,2.47-1.73,4.66-4.32,4.66
		c-2.66,0-4.42-1.94-4.42-4.54C51.05,29.82,52.59,27.47,55.42,27.47z M51.12,26.7h-1.08v17.57h1.08v-8.4h0.05
		c0.91,1.42,2.57,2.16,4.27,2.16c3.34,0,5.42-2.45,5.42-5.69s-2.09-5.88-5.47-5.88c-1.63,0-3.41,0.82-4.22,2.23h-0.05V26.7z"/>
	<path display="inline" fill="#FFFFFF" d="M64.68,17.99v19.8h1.08v-5.47c0-2.26,0.46-4.85,3.24-4.85c2.42,0,2.66,1.63,2.66,3.62v6.7
		h1.08v-6.7c0-2.86-0.79-4.63-3.65-4.63c-1.44,0-2.64,0.74-3.29,1.97h-0.05V17.99H64.68z"/>
	<path display="inline" fill="#FFFFFF" d="M82.32,26.46c-3.22,0-5.76,2.62-5.76,5.81c0,3.14,2.57,5.76,5.76,5.76
		c3.26,0,5.83-2.5,5.83-5.78C88.15,28.96,85.59,26.46,82.32,26.46z M82.25,27.47c2.74,0,4.82,2.06,4.82,4.8
		c0,2.69-2.11,4.75-4.82,4.75c-2.62,0-4.61-2.23-4.61-4.75C77.64,29.7,79.61,27.47,82.25,27.47z"/>
	<path display="inline" fill="#FFFFFF" d="M93.05,26.7h-1.08v11.09h1.08v-5.47c0-2.26,0.46-4.85,3.24-4.85
		c2.42,0,2.66,1.63,2.66,3.62v6.7h1.08v-6.7c0-2.86-0.79-4.63-3.65-4.63c-1.44,0-2.64,0.74-3.29,1.97h-0.05V26.7z"/>
	<path display="inline" fill="#FFFFFF" d="M114.55,32.34c0.02-3.19-1.97-5.88-5.33-5.88c-3.24,0-5.38,2.66-5.38,5.76
		c0,3.14,2.09,5.81,5.38,5.81c2.18,0,3.96-1.08,4.97-3l-0.91-0.53c-0.79,1.49-2.18,2.52-3.91,2.52c-2.57,0-4.51-1.87-4.44-4.68
		H114.55z M104.93,31.34c0.19-2.09,2.06-3.86,4.32-3.86c2.28,0,3.96,1.82,4.22,3.86H104.93z"/>
	<path display="inline" fill="#FFFFFF" d="M127.01,17.99v19.8h1.08v-5.47c0-2.26,0.46-4.85,3.24-4.85c2.42,0,2.66,1.63,2.66,3.62
		v6.7h1.08v-6.7c0-2.86-0.79-4.63-3.65-4.63c-1.44,0-2.64,0.74-3.29,1.97h-0.05V17.99H127.01z"/>
	<path display="inline" fill="#FFFFFF" d="M144.65,26.46c-3.22,0-5.76,2.62-5.76,5.81c0,3.14,2.57,5.76,5.76,5.76
		c3.26,0,5.83-2.5,5.83-5.78C150.48,28.96,147.91,26.46,144.65,26.46z M144.58,27.47c2.74,0,4.82,2.06,4.82,4.8
		c0,2.69-2.11,4.75-4.82,4.75c-2.62,0-4.61-2.23-4.61-4.75C139.97,29.7,141.94,27.47,144.58,27.47z"/>
	<path display="inline" fill="#FFFFFF" d="M155.38,26.7h-1.08v11.09h1.08v-5.66c0-1.63-0.14-4.66,2.28-4.66
		c0.29,0,0.5,0.07,0.77,0.22l0.58-0.96c-0.38-0.17-0.74-0.26-1.18-0.26c-1.18,0-1.97,0.67-2.4,1.68h-0.05V26.7z"/>
	<path display="inline" fill="#FFFFFF" d="M163.66,26.7h-1.08v11.09h1.08V26.7z M163.13,22.02c-0.55,0-0.98,0.46-0.98,0.98
		c0,0.55,0.43,0.98,0.98,0.98c0.55,0,0.98-0.43,0.98-0.98C164.11,22.48,163.68,22.02,163.13,22.02z"/>
	<path display="inline" fill="#FFFFFF" d="M169.49,36.79l9.05-10.08h-9.86v1.01h7.61l-9.07,10.08h11.28v-1.01H169.49z"/>
	<path display="inline" fill="#FFFFFF" d="M186.38,26.46c-3.22,0-5.76,2.62-5.76,5.81c0,3.14,2.57,5.76,5.76,5.76
		c3.26,0,5.83-2.5,5.83-5.78C192.22,28.96,189.65,26.46,186.38,26.46z M186.31,27.47c2.74,0,4.82,2.06,4.82,4.8
		c0,2.69-2.11,4.75-4.82,4.75c-2.62,0-4.61-2.23-4.61-4.75C181.7,29.7,183.67,27.47,186.31,27.47z"/>
	<path display="inline" fill="#FFFFFF" d="M197.11,26.7h-1.08v11.09h1.08v-5.47c0-2.26,0.46-4.85,3.24-4.85
		c2.42,0,2.66,1.63,2.66,3.62v6.7h1.08v-6.7c0-2.86-0.79-4.63-3.65-4.63c-1.44,0-2.64,0.74-3.29,1.97h-0.05V26.7z"/>
	<path display="inline" fill="#FFFFFF" d="M210.19,27.71h1.94V26.7h-1.94v-3.96h-1.08v3.96h-1.22v1.01h1.22v10.08h1.08V27.71z"/>
	<path display="inline" fill="#FFFFFF" d="M219.5,27.47c2.69,0,4.44,2.02,4.44,4.58c0,2.66-1.54,4.97-4.37,4.97
		c-2.69,0-4.37-2.3-4.37-4.85C215.21,29.78,216.96,27.47,219.5,27.47z M224.95,26.7h-1.08v1.92h-0.05
		c-0.94-1.39-2.57-2.16-4.27-2.16c-3.34,0-5.42,2.47-5.42,5.71c0,3.24,2.11,5.86,5.47,5.86c1.63,0,3.41-0.82,4.22-2.23h0.05v1.99
		h1.08V26.7z"/>
	<path display="inline" fill="#FFFFFF" d="M230.93,17.99h-1.08v19.8h1.08V17.99z"/>
	<path display="inline" fill="#FFFFFF" d="M236.9,17.99h-1.08v19.8h1.08V17.99z"/>
	<path display="inline" fill="#FFFFFF" d="M245.11,37.99l-2.66,6.29h1.1l7.44-17.57h-1.1l-4.25,10.03l-4.73-10.03h-1.13
		L245.11,37.99z"/>
	<path display="inline" fill="#FFFFFF" d="M-120.68,65.07c-1.27,3.22-1.7,8.23-1.7,11.64c0,3.34,0.48,8.21,1.7,11.33l0.89-0.6
		c-0.98-3.55-1.51-7.22-1.51-10.73c0-3.79,0.53-7.54,1.51-11.02L-120.68,65.07z"/>
	<path display="inline" fill="#FFFFFF" d="M-108.44,72.7v6.26c0,2.14-0.24,4.06-2.9,4.06c-2.66,0-2.9-1.92-2.9-4.06V72.7h-1.08v6.65
		c0,1.13-0.02,2.26,0.67,3.19c0.77,1.01,2.06,1.49,3.31,1.49s2.54-0.48,3.31-1.49c0.7-0.94,0.67-2.06,0.67-3.19V72.7H-108.44z"/>
	<path display="inline" fill="#FFFFFF" d="M-101.55,72.7h-1.08v11.09h1.08v-5.47c0-2.26,0.46-4.85,3.24-4.85
		c2.42,0,2.66,1.63,2.66,3.62v6.7h1.08v-6.7c0-2.86-0.79-4.63-3.65-4.63c-1.44,0-2.64,0.74-3.29,1.97h-0.05V72.7z"/>
	<path display="inline" fill="#FFFFFF" d="M-88.59,63.99h-1.08v19.8h1.08V63.99z"/>
	<path display="inline" fill="#FFFFFF" d="M-79.02,72.46c-3.22,0-5.76,2.62-5.76,5.81c0,3.14,2.57,5.76,5.76,5.76
		c3.26,0,5.83-2.5,5.83-5.78C-73.18,74.96-75.75,72.46-79.02,72.46z M-79.09,73.47c2.74,0,4.82,2.06,4.82,4.8
		c0,2.69-2.11,4.75-4.82,4.75c-2.62,0-4.61-2.23-4.61-4.75C-83.7,75.7-81.73,73.47-79.09,73.47z"/>
	<path display="inline" fill="#FFFFFF" d="M-60.87,73.83c-1.1-0.94-2.42-1.37-3.86-1.37c-3.26,0-5.71,2.54-5.71,5.76
		c0,3.24,2.4,5.81,5.69,5.81c1.49,0,2.9-0.55,4.03-1.54v-1.46c-1.01,1.22-2.5,1.99-4.08,1.99c-2.62,0-4.56-2.28-4.56-4.8
		c0-2.52,1.97-4.75,4.58-4.75c1.58,0,2.86,0.65,3.91,1.8V73.83z"/>
	<path display="inline" fill="#FFFFFF" d="M-55.64,63.99h-1.08v19.8h1.08v-4.92l0.6-0.62l5.5,5.54h1.42l-6.22-6.29l4.66-4.8h-1.39
		l-4.56,4.7V63.99z"/>
	<path display="inline" fill="#FFFFFF" d="M-33.32,83.99l-2.66,6.29h1.1l7.44-17.57h-1.1l-4.25,10.03l-4.73-10.03h-1.13
		L-33.32,83.99z"/>
	<path display="inline" fill="#FFFFFF" d="M-19.71,72.46c-3.22,0-5.76,2.62-5.76,5.81c0,3.14,2.57,5.76,5.76,5.76
		c3.26,0,5.83-2.5,5.83-5.78C-13.88,74.96-16.45,72.46-19.71,72.46z M-19.79,73.47c2.74,0,4.82,2.06,4.82,4.8
		c0,2.69-2.11,4.75-4.82,4.75c-2.62,0-4.61-2.23-4.61-4.75C-24.39,75.7-22.43,73.47-19.79,73.47z"/>
	<path display="inline" fill="#FFFFFF" d="M-3.35,72.7v6.26c0,2.14-0.24,4.06-2.9,4.06s-2.9-1.92-2.9-4.06V72.7h-1.08v6.65
		c0,1.13-0.02,2.26,0.67,3.19c0.77,1.01,2.06,1.49,3.31,1.49c1.25,0,2.54-0.48,3.31-1.49c0.7-0.94,0.67-2.06,0.67-3.19V72.7H-3.35z"
		/>
	<path display="inline" fill="#FFFFFF" d="M3.54,72.7H2.46v11.09h1.08v-5.66c0-1.63-0.14-4.66,2.28-4.66c0.29,0,0.5,0.07,0.77,0.22
		l0.58-0.96c-0.38-0.17-0.74-0.26-1.18-0.26c-1.18,0-1.97,0.67-2.4,1.68H3.54V72.7z"/>
	<path display="inline" fill="#FFFFFF" d="M24.57,74.24c-0.48-1.03-1.7-1.78-2.83-1.78c-1.61,0-3.02,1.13-3.02,2.81
		c0,1.87,1.73,2.52,3.24,3.07c1.1,0.38,2.16,0.82,2.16,2.18c0,1.39-1.1,2.5-2.5,2.5c-1.46,0-2.35-0.94-2.76-2.26l-1.06,0.34
		c0.46,1.8,1.97,2.93,3.82,2.93c1.99,0,3.58-1.42,3.58-3.46c0-4.01-5.4-2.71-5.4-5.38c0-0.96,0.96-1.73,1.9-1.73
		c0.86,0,1.58,0.48,1.94,1.25L24.57,74.24z"/>
	<path display="inline" fill="#FFFFFF" d="M37.67,73.83c-1.1-0.94-2.42-1.37-3.86-1.37c-3.26,0-5.71,2.54-5.71,5.76
		c0,3.24,2.4,5.81,5.69,5.81c1.49,0,2.9-0.55,4.03-1.54v-1.46c-1.01,1.22-2.5,1.99-4.08,1.99c-2.62,0-4.56-2.28-4.56-4.8
		c0-2.52,1.97-4.75,4.58-4.75c1.58,0,2.86,0.65,3.91,1.8V73.83z"/>
	<path display="inline" fill="#FFFFFF" d="M42.9,72.7h-1.08v11.09h1.08v-5.66c0-1.63-0.14-4.66,2.28-4.66c0.29,0,0.5,0.07,0.77,0.22
		l0.58-0.96c-0.38-0.17-0.74-0.26-1.18-0.26c-1.18,0-1.97,0.67-2.4,1.68H42.9V72.7z"/>
	<path display="inline" fill="#FFFFFF" d="M59.32,78.34c0.02-3.19-1.97-5.88-5.33-5.88c-3.24,0-5.38,2.66-5.38,5.76
		c0,3.14,2.09,5.81,5.38,5.81c2.18,0,3.96-1.08,4.97-3l-0.91-0.53c-0.79,1.49-2.18,2.52-3.91,2.52c-2.57,0-4.51-1.87-4.44-4.68
		H59.32z M49.69,77.34c0.19-2.09,2.06-3.86,4.32-3.86c2.28,0,3.96,1.82,4.22,3.86H49.69z"/>
	<path display="inline" fill="#FFFFFF" d="M72.76,78.34c0.02-3.19-1.97-5.88-5.33-5.88c-3.24,0-5.38,2.66-5.38,5.76
		c0,3.14,2.09,5.81,5.38,5.81c2.18,0,3.96-1.08,4.97-3l-0.91-0.53c-0.79,1.49-2.18,2.52-3.91,2.52c-2.57,0-4.51-1.87-4.44-4.68
		H72.76z M63.13,77.34c0.19-2.09,2.06-3.86,4.32-3.86c2.28,0,3.96,1.82,4.22,3.86H63.13z"/>
	<path display="inline" fill="#FFFFFF" d="M77.65,72.7h-1.08v11.09h1.08v-5.47c0-2.26,0.46-4.85,3.24-4.85
		c2.42,0,2.66,1.63,2.66,3.62v6.7h1.08v-6.7c0-2.86-0.79-4.63-3.65-4.63c-1.44,0-2.64,0.74-3.29,1.97h-0.05V72.7z"/>
	<path display="inline" fill="#FFFFFF" d="M99.66,72.7h-1.08v11.09h1.08V72.7z M99.13,68.02c-0.55,0-0.98,0.46-0.98,0.98
		c0,0.55,0.43,0.98,0.98,0.98c0.55,0,0.98-0.43,0.98-0.98C100.12,68.48,99.68,68.02,99.13,68.02z"/>
	<path display="inline" fill="#FFFFFF" d="M106.07,73.71h2.78V72.7h-2.78v-4.75c0-1.39,0.02-3.26,1.9-3.26c0.31,0,0.6,0.1,0.89,0.14
		v-0.98c-0.31-0.12-0.62-0.17-0.96-0.17c-1.01,0-1.97,0.46-2.47,1.34c-0.41,0.72-0.43,1.9-0.43,2.71v4.97h-1.22v1.01h1.22v10.08
		h1.08V73.71z"/>
	<path display="inline" fill="#FFFFFF" d="M121.67,72.7h-1.08v11.09h1.08v-5.47c0-2.26,0.46-4.85,3.24-4.85
		c2.42,0,2.66,1.63,2.66,3.62v6.7h1.08v-6.7c0-2.86-0.79-4.63-3.65-4.63c-1.44,0-2.64,0.74-3.29,1.97h-0.05V72.7z"/>
	<path display="inline" fill="#FFFFFF" d="M143.17,78.34c0.02-3.19-1.97-5.88-5.33-5.88c-3.24,0-5.38,2.66-5.38,5.76
		c0,3.14,2.09,5.81,5.38,5.81c2.18,0,3.96-1.08,4.97-3l-0.91-0.53c-0.79,1.49-2.18,2.52-3.91,2.52c-2.57,0-4.51-1.87-4.44-4.68
		H143.17z M133.55,77.34c0.19-2.09,2.06-3.86,4.32-3.86c2.28,0,3.96,1.82,4.22,3.86H133.55z"/>
	<path display="inline" fill="#FFFFFF" d="M155.48,73.83c-1.1-0.94-2.42-1.37-3.86-1.37c-3.26,0-5.71,2.54-5.71,5.76
		c0,3.24,2.4,5.81,5.69,5.81c1.49,0,2.9-0.55,4.03-1.54v-1.46c-1.01,1.22-2.5,1.99-4.08,1.99c-2.62,0-4.56-2.28-4.56-4.8
		c0-2.52,1.97-4.75,4.58-4.75c1.58,0,2.86,0.65,3.91,1.8V73.83z"/>
	<path display="inline" fill="#FFFFFF" d="M169.26,78.34c0.02-3.19-1.97-5.88-5.33-5.88c-3.24,0-5.38,2.66-5.38,5.76
		c0,3.14,2.09,5.81,5.38,5.81c2.18,0,3.96-1.08,4.97-3l-0.91-0.53c-0.79,1.49-2.18,2.52-3.91,2.52c-2.57,0-4.51-1.87-4.44-4.68
		H169.26z M159.63,77.34c0.19-2.09,2.06-3.86,4.32-3.86c2.28,0,3.96,1.82,4.22,3.86H159.63z"/>
	<path display="inline" fill="#FFFFFF" d="M178.67,74.24c-0.48-1.03-1.7-1.78-2.83-1.78c-1.61,0-3.02,1.13-3.02,2.81
		c0,1.87,1.73,2.52,3.24,3.07c1.1,0.38,2.16,0.82,2.16,2.18c0,1.39-1.1,2.5-2.5,2.5c-1.46,0-2.35-0.94-2.76-2.26l-1.06,0.34
		c0.46,1.8,1.97,2.93,3.82,2.93c1.99,0,3.58-1.42,3.58-3.46c0-4.01-5.4-2.71-5.4-5.38c0-0.96,0.96-1.73,1.9-1.73
		c0.86,0,1.58,0.48,1.94,1.25L178.67,74.24z"/>
	<path display="inline" fill="#FFFFFF" d="M188.87,74.24c-0.48-1.03-1.7-1.78-2.83-1.78c-1.61,0-3.02,1.13-3.02,2.81
		c0,1.87,1.73,2.52,3.24,3.07c1.1,0.38,2.16,0.82,2.16,2.18c0,1.39-1.1,2.5-2.5,2.5c-1.46,0-2.35-0.94-2.76-2.26l-1.06,0.34
		c0.46,1.8,1.97,2.93,3.82,2.93c1.99,0,3.58-1.42,3.58-3.46c0-4.01-5.4-2.71-5.4-5.38c0-0.96,0.96-1.73,1.9-1.73
		c0.86,0,1.58,0.48,1.94,1.25L188.87,74.24z"/>
	<path display="inline" fill="#FFFFFF" d="M197.77,73.47c2.69,0,4.44,2.02,4.44,4.58c0,2.66-1.54,4.97-4.37,4.97
		c-2.69,0-4.37-2.3-4.37-4.85C193.47,75.78,195.23,73.47,197.77,73.47z M203.22,72.7h-1.08v1.92h-0.05
		c-0.94-1.39-2.57-2.16-4.27-2.16c-3.34,0-5.42,2.47-5.42,5.71c0,3.24,2.11,5.86,5.47,5.86c1.63,0,3.41-0.82,4.22-2.23h0.05v1.99
		h1.08V72.7z"/>
	<path display="inline" fill="#FFFFFF" d="M209.19,72.7h-1.08v11.09h1.08v-5.66c0-1.63-0.14-4.66,2.28-4.66
		c0.29,0,0.5,0.07,0.77,0.22l0.58-0.96c-0.38-0.17-0.74-0.26-1.18-0.26c-1.18,0-1.97,0.67-2.4,1.68h-0.05V72.7z"/>
	<path display="inline" fill="#FFFFFF" d="M219.3,83.99l-2.66,6.29h1.1l7.44-17.57h-1.1l-4.25,10.03L215.1,72.7h-1.13L219.3,83.99z"
		/>
	<path display="inline" fill="#FFFFFF" d="M227.96,65.7c0.98,3.48,1.51,7.22,1.51,11.02c0,3.5-0.53,7.18-1.51,10.73l0.89,0.6
		c1.22-3.12,1.7-7.99,1.7-11.33c0-3.41-0.43-8.42-1.7-11.64L227.96,65.7z"/>
</g>
</svg>
