<?xml version="1.0" encoding="utf-8"?>
<!-- Generator: Adobe Illustrator 19.1.0, SVG Export Plug-In . SVG Version: 6.00 Build 0)  -->
<!DOCTYPE svg PUBLIC "-//W3C//DTD SVG 1.1//EN" "http://www.w3.org/Graphics/SVG/1.1/DTD/svg11.dtd">
<svg version="1.1" xmlns="http://www.w3.org/2000/svg" xmlns:xlink="http://www.w3.org/1999/xlink" x="0px" y="0px"
	 viewBox="-377 274 204 14" enable-background="new -377 274 204 14" xml:space="preserve">
<path d="M-328.83,286.69h1.41v-8.43l8.49,8.89v-11.77h-1.41v8.35l-8.49-8.89V286.69z"/>
<path d="M-314.07,286.69h6.07v-1.29h-4.66v-4.27h4.53v-1.29h-4.53v-3.16h4.66v-1.29h-6.07V286.69z"/>
<path d="M-300.93,280.76l-3.55,5.92h1.57l2.77-4.63l2.67,4.63h1.57l-3.43-5.92l3.25-5.38h-1.6l-2.46,4.12l-2.31-4.12h-1.6
	L-300.93,280.76z"/>
<path d="M-288.9,276.67h2.68v-1.29h-6.78v1.29h2.68v10.02h1.41V276.67z"/>
<path d="M-271.6,281.77c1.63-0.19,2.71-1.54,2.71-3.16c0-1.08-0.54-2.14-1.48-2.7c-0.9-0.51-1.98-0.52-2.98-0.52h-1.71v11.31h1.41
	v-4.78h0.58l3.33,4.78h1.71L-271.6,281.77z M-273.66,276.64h0.38c1.39,0,3.07,0.26,3.07,2.02c0,1.8-1.56,2.07-3,2.07h-0.45V276.64z"
	/>
<path d="M-258.94,275.14c-3.24,0-5.92,2.65-5.92,5.89c0,3.36,2.65,5.89,5.92,5.89c3.27,0,5.92-2.53,5.92-5.89
	C-253.02,277.79-255.7,275.14-258.94,275.14z M-258.94,285.61c-2.44,0-4.51-1.99-4.51-4.57c0-2.49,1.86-4.57,4.51-4.57
	c2.65,0,4.51,2.08,4.51,4.57C-254.43,283.61-256.5,285.61-258.94,285.61z"/>
<path d="M-243.67,275.14c-3.24,0-5.92,2.65-5.92,5.89c0,3.36,2.65,5.89,5.92,5.89c3.27,0,5.92-2.53,5.92-5.89
	C-237.75,277.79-240.43,275.14-243.67,275.14z M-243.67,285.61c-2.44,0-4.51-1.99-4.51-4.57c0-2.49,1.86-4.57,4.51-4.57
	c2.65,0,4.51,2.08,4.51,4.57C-239.16,283.61-241.23,285.61-243.67,285.61z"/>
<path d="M-228.22,286.93l3.39-7.71h0.03l1.32,7.47h1.46l-2.31-11.79l-3.88,8.91l-3.88-8.91l-2.31,11.79h1.45l1.32-7.47h0.03
	L-228.22,286.93z"/>
</svg>
